<?xml version="1.0" encoding="UTF-8"?>
<svg id="Layer_2" data-name="Layer 2" xmlns="http://www.w3.org/2000/svg" viewBox="0 0 118.93 35.42">
  <defs>
    <style>
      .cls-1, .cls-2 {
        stroke: #000;
        stroke-miterlimit: 10;
        stroke-width: .3px;
      }

      .cls-1, .cls-3 {
        fill: #fff;
      }

      .cls-4, .cls-3 {
        stroke-width: 0px;
      }
    </style>
  </defs>
  <g id="Layer_1-2" data-name="Layer 1">
    <g>
      <path class="cls-3" d="M66.64,21.49s-.01,0-.02,0c-.09-.03-.18-.07-.26-.09-.02,0-.04-.01-.06-.02-.02,0-.04,0-.06-.01,0,0,0,0-.01,0-.02,0-.04,0-.06,0-.02,0-.04,0-.06,0-.02,0-.04,0-.05,0-.5.06-.99.19-1.48.32-.81.21-1.61.5-2.16-.29-.03-.04-.12-.09-.19-.09-.21,0-.5-.02-.62.06-.1.07-.08.31,0,.43.1.15.27.29.44.44t0,0s.08.07.13.11c-.06.02-.11.05-.17.08-.64.28-1.23.58-1.86.8-.07.03-.15.05-.22.08-.36.12-.97.14-1.27,0-.51-.25-.11-.61.12-.89,1.34-1.63,2.47-3.33,3.26-5.15.21-.48.4-.98.4-1.48,0-.3-.28-.69-.61-.88-.47-.26-.93.03-1.27.29-.29.21-.56.45-.77.7-1.55,1.89-2.61,3.89-2.39,6.13.06.62-.23.99-.8,1.33-.03.02-.06.03-.09.05-.03.02-.06.03-.09.04-.15.06-.31.12-.47.17h0c-.06.02-.13.04-.19.07-.02-.05-.04-.1-.06-.15-.06-.17-.13-.34-.2-.52-.07-.16-.14-.32-.21-.48-.04-.08-.16-.11-.26-.07,0,0,0,0,0,0-.23.1-.46.2-.66.33-.18.12-.32.3-.42.47-.63,1.19-1.25,2.38-1.87,3.56-.07.14-.15.28-.23.43-.03.05-.06.11-.09.16h0c-.03.06-.07.13-.11.19-.02.04-.05.09-.07.13h0c-.04.07-.08.15-.13.23-.07-.07-.13-.14-.19-.21,0,0,0,0,0,0-.1-.12-.18-.24-.24-.35,0-.02-.02-.03-.03-.05-.06-.12-.1-.24-.13-.36,0-.02,0-.03-.01-.05,0-.04-.01-.08-.02-.13,0-.02,0-.04,0-.06-.01-.23.02-.46.09-.68.58-2.03,1.2-4.06,1.83-6.09.49-1.59,1.05-3.17,1.52-4.76.15-.52.02-1.04-.71-1.32-.7-.27-1.35-.03-1.83.31-.92.65-1.87,1.31-2.61,2.06-3.12,3.18-5.53,6.64-7.79,10.17-.57.9-1.27,1.76-2.06,2.57-.58.6-1.23.54-1.68-.09-.32-.44-.5-.94-.71-1.42-.64-1.41-1.57-1.85-3.56-1.58-1.98.27-3.94.6-5.9.94-.02,0-.05,0-.07.02,0,0,0,0,0,0-.02,0-.05.01-.07.02,0,0,0,0,0,0-.02,0-.04.02-.06.03-.04.02-.09.05-.13.07-.07.04-.13.09-.2.13-.09.07-.06.18.06.21.13.04.27.07.41.11.08.02.15.04.23.05.09.02.2-.02.3-.04,1.89-.3,3.77-.63,5.67-.91,1.44-.21,2.18.18,2.56,1.22.17.47.36.95.66,1.37.77,1.08,1.99,1.23,3.08.32.72-.6,1.28-1.32,1.75-2.04,2.33-3.54,4.62-7.09,7.78-10.3.81-.82,1.8-1.54,2.77-2.27.2-.15.47-.31.81-.33.05,0,.15.01.24.05.01,0,.02,0,.03,0,0,0,0,.01,0,.02.07.03.13.06.15.1.15.22.03.5-.02.73-.2.81-.48,1.61-.74,2.42-.83,2.55-1.73,5.1-2.45,7.67-.21.74,0,1.56.17,2.33.08.38.54.79,1.14.68.38-.07.79-.41.95-.7.45-.8.77-1.63,1.17-2.44.04-.07.07-.14.11-.21.15-.28.3-.57.46-.85.03-.06.07-.12.1-.18.04-.07.08-.14.11-.2.05-.08.09-.17.14-.25.06.08.11.16.18.23.02.02.04.04.06.06.04.04.09.09.13.12.02.02.04.03.06.05.02.02.04.03.06.05,0,0,0,0,0,0,.02.01.05.03.07.04.02.01.05.03.07.04.02.01.04.02.06.03,0,0,.02,0,.03.01.04.01.09.03.13.04,0,0,0,0,0,0,.01,0,.03,0,.04,0,.02,0,.04,0,.07.01.02,0,.04,0,.06,0,.09,0,.18,0,.27,0,.05,0,.11-.02.17-.03,0,0,.02,0,.03,0,.04,0,.07-.02.11-.03.14-.04.28-.09.42-.15.05-.02.11-.05.16-.07.08-.04.16-.07.24-.11.13-.06.26-.13.4-.2.04-.02.07-.04.11-.06.06-.03.12-.06.17-.08.04-.02.08-.04.11-.05.04.03.08.05.11.07.24.16.45.28.65.37.02.01.05.02.07.03.08.03.16.06.24.08.03,0,.06.02.08.02.03,0,.05.01.08.01.48.08.94-.06,1.71-.41.11-.05.22-.1.33-.15.06-.02.11-.05.17-.07.06-.02.12-.05.18-.07.24-.1.49-.2.76-.3.12-.05.24-.1.36-.15-.04.11-.08.21-.11.3,0,.02-.01.05-.02.07-.08.35.02.58.57.63.29.03.53-.08.69-.3.03-.04.05-.08.08-.13,0-.02.02-.03.02-.05.03-.06.05-.13.07-.21,0,0,0-.01,0-.02.05-.19.07-.41.07-.66h0s0-.07,0-.1c.04,0,.07-.02.11-.03,0,0,0,0,.01,0,.38-.09.78-.17,1.18-.27.25-.06.51-.12.76-.19.1-.03.2-.05.29-.08.02,0,.04-.01.06-.02.03-.01.06-.03.09-.05.1-.06.18-.15.26-.24.06-.06.04-.14-.05-.18ZM58.4,20.97c0-.06.01-.12.02-.17.03-.25.08-.5.13-.75.02-.1.04-.2.07-.3,0-.03.01-.06.02-.08.01-.06.03-.12.05-.17.02-.06.04-.12.05-.18.04-.14.09-.27.14-.41.02-.06.05-.13.08-.19.05-.13.11-.26.17-.38.03-.05.05-.11.08-.16.09-.18.2-.37.31-.55.02-.03.04-.07.07-.1.05-.07.1-.14.15-.22.03-.04.06-.08.09-.12.26-.35.55-.68.9-1.01.05-.05.1-.1.15-.14.03-.03.07-.06.11-.1.04-.03.07-.06.11-.09.11-.1.23-.2.36-.29-.02.13-.03.27-.06.4h0s0,.02,0,.02c-.02.13-.05.26-.08.39-.01.06-.03.12-.05.18-.02.07-.04.14-.06.22-.02.07-.04.13-.06.2,0,0,0,0,0,.01-.02.06-.04.12-.06.18-.05.13-.1.26-.15.38-.04.1-.08.19-.13.29h0c-.04.1-.09.19-.14.28,0,0,0,0,0,0-.06.12-.12.24-.19.37-.03.06-.07.12-.1.18-.05.1-.11.19-.17.29-.04.07-.08.13-.12.19-.06.09-.12.19-.18.28-.03.05-.06.1-.1.15-.33.5-.7.98-1.07,1.47,0,0,0,0,0,0-.12.16-.25.32-.38.48.01-.19.03-.38.05-.56Z"/>
      <path class="cls-3" d="M118.84,20.45s0,0-.01-.01c-.08-.07-.16-.14-.24-.21-.02-.02-.05-.04-.07-.06-.02-.02-.04-.03-.06-.05-.03-.02-.06-.04-.09-.06-.13-.07-.34-.09-.52-.09-1.19.02-2.38,0-3.55.11-1.38.14-2.73.42-4.1.61-1.53.21-3.08.41-4.55-.17-1.1-.43-2.17-.51-3.31-.05-.25.1-.72.06-.98-.05-.65-.26-1.22-.25-1.82.03-.3.14-.6.31-.93.39-.19.05-.52.02-.65-.08-.99-.71-1.12-.72-2.28-.18-.13.06-.27.12-.41.18-.07.03-.14.06-.21.09-.28.12-.57.23-.88.36-.07.03-.15.06-.22.09,0,0,0,0,0,0-.07.03-.13.05-.2.08.01-.06.02-.11.03-.16,0,0,0,0,0-.01.12-.86-.24-1.19-1.11-1.03-.35.06-.74.34-.89.59-.18.32-.44.4-.85.44-.59.07-.69-.3-1.01-.49-.01,0-.03-.02-.04-.02-.01,0-.03-.01-.05-.02-.02,0-.03-.01-.05-.02-.02,0-.03-.01-.05-.02-.02,0-.04,0-.05-.01-.02,0-.04,0-.07-.01-.03,0-.06-.01-.09-.01-.12-.02-.24-.03-.36-.04-.05,0-.1-.01-.15-.02,0,.03,0,.07,0,.1h0s0,.08,0,.12c0,.04,0,.09,0,.13,0,.02,0,.04,0,.06,0,.02,0,.05.01.07,0,.01,0,.03.01.05,0,.02.01.04.02.06,0,.02.01.03.02.05,0,.01.02.03.03.04,0,.01.02.02.03.03,0,.01.02.02.03.03.05.05.11.11.17.17,0,0,0,0,0,0,.03.03.06.06.08.09-.05.01-.09.03-.14.04-.1.03-.19.06-.29.09-.09.03-.19.06-.28.08-.09.03-.19.06-.28.08-.46.14-.91.27-1.36.4-.19.05-.41.05-.61.04-.81-.04-1.09-.39-.72-.92.15-.22.33-.43.53-.62,1.67-1.6,2.87-3.37,3.72-5.28.24-.54.5-1.08.59-1.63.05-.28-.15-.73-.44-.86-.27-.13-.91-.03-1.22.14-.47.24-.87.6-1.17.96-1.52,1.89-2.63,3.9-3.14,6.08-.11.47-.12,1.02-.47,1.37-.44.43-1.16.74-1.82,1.02-.91.38-1.14.27-1.45-.45-.08-.18-.29-.43-.48-.45-.24-.03-.58.1-.78.24-.48.33-.94.69-1.35,1.08-.03.03-.06.07-.08.1-.01.02-.02.03-.03.05-.05.1-.08.21-.11.32-.02.06.04.11.12.11h.02c.06,0,.13,0,.19,0,.04,0,.07,0,.11,0,.03,0,.06,0,.09,0,.06,0,.11,0,.16-.02.02,0,.03,0,.04,0,.02,0,.03,0,.05-.01.01,0,.02,0,.03-.01.03,0,.05-.02.08-.03.05-.03.09-.05.14-.08.05-.03.09-.06.13-.09.03-.02.07-.05.1-.07.01,0,.02-.02.03-.02.04-.03.07-.05.11-.08.02-.02.04-.04.07-.06.04-.04.09-.07.13-.11.1-.09.2-.17.3-.26.03-.03.07-.05.1-.08.03.03.06.06.09.09,0,0,0,0,.01.01.03.03.07.06.1.09.03.03.06.06.1.09.04.03.08.06.11.09.03.02.05.04.08.06.1.07.19.13.29.19.03.01.05.03.08.04.03.01.06.03.08.04,0,0,0,0,.01,0,.02,0,.04.02.07.02.02,0,.03.01.05.02.03.01.06.02.09.02.03,0,.06.01.09.02.06.01.12.02.18.02.03,0,.07,0,.1,0,.37,0,.78-.11,1.31-.33.57-.24,1.11-.53,1.72-.83.03-.01.06-.03.09-.04.02.02.04.04.07.06h0s.06.05.09.08c.18.14.36.26.55.36.03.02.07.03.1.05.02.01.05.02.07.03.02.01.04.02.07.03.03.01.07.03.1.04.03.01.07.02.1.03.02,0,.05.02.08.02.02,0,.04.01.06.02.03,0,.07.02.1.02.03,0,.05,0,.08.01.05,0,.11.01.17.02.04,0,.09,0,.13,0,.13,0,.27-.01.41-.04.1-.02.2-.04.29-.06.08-.02.17-.04.25-.06.01,0,.03,0,.04-.01.05-.01.1-.02.15-.04s.1-.02.14-.04c.07-.02.14-.04.21-.06.03,0,.05-.01.08-.02.1-.03.19-.06.29-.08.15-.04.29-.09.44-.13.08-.02.16-.05.24-.07,0,0,.02,0,.03,0,0,0,0,0,0,0,.05-.01.1-.03.15-.04,0,.04,0,.08,0,.12,0,.03,0,.06.01.09,0,.03.01.06.02.09,0,0,0,0,0,0,0,.03.01.05.02.08,0,.03.02.05.03.08.02.05.04.09.07.13,0,0,0,0,0,.01.01.02.03.04.05.06.02.02.03.04.05.06,0,0,0,0,0,0,.02.02.04.03.06.05.03.03.07.05.11.08,0,0,.02.01.03.01.04.02.08.03.12.05,0,0,.02,0,.03,0,.02,0,.04.01.06.01,0,0,.01,0,.02,0,.02,0,.04,0,.06,0,0,0,0,0,.01,0,0,0,.02,0,.02,0,.02,0,.04,0,.07,0s.04,0,.07,0c.68-.05.85-.42.9-.85,0-.02,0-.05,0-.07,0-.05,0-.09.01-.14,0-.03,0-.07,0-.11,0-.03,0-.06,0-.09,0-.02,0-.04,0-.06,0-.04,0-.08,0-.13,0,0,0-.01,0-.02,0-.03,0-.06,0-.09.05,0,.1,0,.16.01.08,0,.16,0,.25,0,.11,0,.22,0,.32.01.02,0,.04,0,.06,0,.02,0,.04,0,.06,0,.02,0,.04,0,.06,0,.02,0,.04,0,.05.01.05.01.1.03.15.05.67.31,1.32.3,1.99.06.7-.25,1.36-.53,2.04-.81.37-.15.67-.21.96.13.35.4.92.47,1.51.28.43-.14.81-.35,1.25-.45.3-.07.74-.08.98.03.61.3,1.15.27,1.73.01.9-.39,1.8-.39,2.71,0,.99.43,2.09.57,3.21.44,1.53-.19,3.04-.42,4.56-.64,1.68-.25,3.36-.43,5.07-.19.02,0,.03,0,.05,0,.01,0,.03,0,.04,0,.1,0,.2-.05.31-.09.02,0,.03-.01.05-.02.02,0,.03-.01.05-.02.02,0,.03-.01.04-.02.02,0,.04-.01.05-.02,0,0,0,0,.01,0,.04-.02.09-.03.13-.05-.03-.02-.05-.05-.08-.07ZM85.73,19.8h0c.02-.07.04-.14.06-.2.02-.07.04-.13.06-.2.01-.04.02-.08.04-.13.02-.07.04-.13.06-.19.1-.3.2-.59.32-.88.06-.14.12-.29.18-.43.03-.07.06-.14.1-.21.07-.15.14-.29.22-.44.03-.06.07-.13.1-.19.04-.07.08-.14.11-.21.03-.05.06-.1.09-.15.05-.09.1-.17.16-.26.04-.07.09-.13.13-.2.04-.07.09-.13.13-.2.12-.17.25-.34.38-.51.04-.05.08-.1.12-.15.11-.13.22-.27.34-.39.04-.05.08-.09.13-.14.05-.06.11-.11.16-.17.11-.11.22-.22.34-.33.06-.06.12-.11.18-.16.06-.05.12-.11.19-.16.09-.08.18-.15.27-.22-.02.09-.04.19-.06.28h0s-.01.05-.02.08c0,.03-.01.06-.02.09,0,.02,0,.04-.01.05-.05.2-.11.4-.18.6,0,0,0,.01,0,.02-.05.15-.1.29-.16.43-.03.07-.06.14-.09.21s-.06.14-.09.21c-.06.14-.13.28-.2.42-.03.07-.07.14-.11.21,0,.01-.01.02-.02.04-.07.13-.13.25-.21.37,0,0,0,0,0,0-.07.12-.14.24-.22.37-.01.02-.03.04-.04.07-.04.06-.07.12-.11.17-.04.07-.09.14-.14.21-.04.06-.09.13-.13.19-.04.06-.08.12-.13.17-.29.4-.61.79-.96,1.18-.06.06-.11.13-.17.19-.09.09-.17.19-.26.28-.05.06-.11.11-.16.17-.05.06-.11.11-.16.17-.1.1-.21.21-.31.31.03-.13.07-.25.1-.38Z"/>
      <path class="cls-3" d="M83.4,12.66c-.03.08-.13.14-.24.2-.02.01-.04.02-.07.03-.04.02-.08.04-.11.06-.07.03-.16.02-.21-.03-.04-.05-.09-.1-.13-.15-.01-.02-.03-.03-.04-.05-.03-.05-.06-.09-.07-.14,0,0,0-.02,0-.02,0-.01,0-.03,0-.04,0-.02,0-.04,0-.07h0c0-.34.09-.67.14-.99,0,0-.02,0-.03,0,0-.15-.07-.15-.2-.05-.02,0-.04,0-.06-.01-.33.32-.76.61-.97.97-1.39,1.69-2.18,3.61-3.06,5.46-1.49,3.11-2.81,6.27-4.22,9.4-.26.57-.52,1.15-.93,1.66-.08.09-.18.17-.3.25-.02.01-.05.03-.07.04-.02.01-.04.02-.07.04-.2.11-.43.2-.63.31-.04.02-.03,0-.07.02-.03-.03-.1,0-.13-.03-.03-.03-.07-.06-.11-.09-.02-.02-.04-.04-.07-.06-.13-.1-.27-.2-.38-.31-.02-.01-.03-.03-.05-.05-.02-.02-.04-.04-.05-.06-.02-.02-.03-.03-.04-.05-.02-.02-.04-.05-.05-.07,0-.01-.02-.02-.02-.03,0-.02-.02-.03-.02-.05,0-.02-.01-.04-.02-.06-.2-.96-.42-1.95-.28-2.9.42-2.91,1.03-5.8,1.52-8.7.2-1.15.3-2.32.38-3.48,0-.02,0-.04,0-.06,0-.01,0-.03,0-.04,0-.03-.01-.05-.02-.08,0-.02-.01-.03-.02-.05-.02-.05-.05-.09-.08-.14-.02-.03-.04-.06-.06-.08,0-.01-.02-.03-.03-.04-.04-.05-.07-.1-.11-.16,0,0,0,0,0,0-.02-.03-.04-.07-.06-.1-.04.02-.09.04-.13.05,0,0,0,0,0,0-.09.04-.19.07-.29.1-.04.01-.08.03-.12.05-.13.05-.26.11-.35.18,0,0-.02.01-.03.02,0,0-.01.01-.02.02-.01.01-.02.02-.03.03-1.27,1.51-2.26,3.11-2.83,4.85-.07.21-.4.57-.52.55-.55-.09-.49-.46-.34-.73.84-1.55,1.7-3.09,2.61-4.62.21-.35.61-.66,1-.92.8-.53,1.69-.43,2.03.31.26.57.39,1.22.29,1.82-.36,2.16-.91,4.3-1.24,6.46-.33,2.12-.51,4.26-.68,6.39,0,.06,0,.11,0,.17,0,.02,0,.04,0,.06,0,.02,0,.04,0,.06.02.12.05.23.08.35,0,.03.02.05.02.08.03.1.07.19.1.29.04.11.08.23.11.34.12,0,.23,0,.35.01.06-.11.11-.22.17-.33h0c.09-.18.19-.36.28-.54.04-.09.09-.17.13-.26.2-.37.39-.75.56-1.12,1.97-4.22,3.89-8.45,5.92-12.66.45-.92,1.22-1.77,1.97-2.6.24-.27.91-.5,1.34-.47.66.05.73.57.76.99.02.3.02.61-.08.89Z"/>
      <path class="cls-3" d="M56.38,20.79h0c-.13.07-.25.14-.34.19-.13.04-.22.04-.31,0-.11-.07-.21-.14-.3-.23-.04-.05-.09-.1-.15-.15-.04-.05-.05-.1-.03-.16.06-.05.16-.13.24-.18.12-.04.25-.01.39.05.14.08.29.17.47.29.06.05.07.12.03.17Z"/>
      <path class="cls-3" d="M81.49,20.4c-.11.07-.21.11-.29.14-.23-.16-.47-.32-.66-.5-.02-.02.1-.11.25-.23.21,0,.44.17.72.35.1.07.09.18,0,.24Z"/>
      <path class="cls-4" d="M66.64,21.49s-.01,0-.02,0c-.09-.03-.18-.07-.26-.09-.02,0-.04-.01-.06-.02-.02,0-.04,0-.06-.01,0,0,0,0-.01,0-.02,0-.04,0-.06,0-.02,0-.04,0-.06,0-.02,0-.04,0-.05,0-.5.06-.99.19-1.48.32-.81.21-1.61.5-2.16-.29-.03-.04-.12-.09-.19-.09-.21,0-.5-.02-.62.06-.1.07-.08.31,0,.43.1.15.27.29.44.44t0,0c.07.06.04.15-.05.19-.64.28-1.23.58-1.86.8-.07.03-.15.05-.22.08-.36.12-.97.14-1.27,0-.51-.25-.11-.61.12-.89,1.34-1.63,2.47-3.33,3.26-5.15.21-.48.4-.98.4-1.48,0-.3-.28-.69-.61-.88-.47-.26-.93.03-1.27.29-.29.21-.56.45-.77.7-1.55,1.89-2.61,3.89-2.39,6.13.06.62-.23.99-.8,1.33-.03.02-.06.03-.09.05-.03.02-.06.03-.09.04-.15.06-.31.12-.47.17h0c-.1.03-.22,0-.25-.08-.06-.17-.13-.34-.2-.52-.07-.16-.14-.32-.21-.48-.04-.08-.16-.11-.26-.07,0,0,0,0,0,0-.23.1-.46.2-.66.33-.18.12-.32.3-.42.47-.63,1.19-1.25,2.38-1.87,3.56-.07.14-.15.28-.23.43-.03.05-.06.11-.09.16h0c-.03.06-.07.13-.11.19-.02.04-.05.09-.07.13h0c-.06.1-.24.11-.32.02,0,0,0,0,0,0-.1-.12-.18-.24-.24-.35,0-.02-.02-.03-.03-.05-.06-.12-.1-.24-.13-.36,0-.02,0-.03-.01-.05,0-.04-.01-.08-.02-.13,0-.02,0-.04,0-.06-.01-.23.02-.46.09-.68.58-2.03,1.2-4.06,1.83-6.09.49-1.59,1.05-3.17,1.52-4.76.15-.52.02-1.04-.71-1.32-.7-.27-1.35-.03-1.83.31-.92.65-1.87,1.31-2.61,2.06-3.12,3.18-5.53,6.64-7.79,10.17-.57.9-1.27,1.76-2.06,2.57-.58.6-1.23.54-1.68-.09-.32-.44-.5-.94-.71-1.42-.64-1.41-1.57-1.85-3.56-1.58-1.82.25-3.59.5-5.39.8h-.17c-.4,0-.37-.1-.31.02.01.02.04.78.12.78.06,0,.07.02.21.01.17,0,0,0,.13,0,1.91-.1,3.74-.69,5.64-.97,1.44-.21,2.18.18,2.56,1.22.17.47.36.95.66,1.37.77,1.08,1.99,1.23,3.08.32.72-.6,1.28-1.32,1.75-2.04,2.33-3.54,4.62-7.09,7.78-10.3.81-.82,1.8-1.54,2.77-2.27.2-.15.47-.31.81-.33.05,0,.15.01.24.05.01,0,.02,0,.04.01.07.03.13.06.15.1.15.22.03.5-.02.73-.2.81-.48,1.61-.74,2.42-.83,2.55-1.73,5.1-2.45,7.67-.21.74,0,1.56.17,2.33.08.38.54.79,1.14.68.38-.07.79-.41.95-.7.45-.8.77-1.63,1.17-2.44.04-.07.07-.14.11-.21.15-.28.3-.57.46-.85.03-.06.07-.12.1-.18.04-.07.08-.14.11-.2.05-.1.24-.11.31-.02.02.02.04.04.06.06.04.04.09.09.13.12.02.02.04.03.06.05.02.02.04.03.06.05,0,0,0,0,0,0,.02.01.05.03.07.04.02.01.05.03.07.04.02.01.04.02.06.03,0,0,.02,0,.03.01.04.01.09.03.13.04,0,0,0,0,0,0,.01,0,.03,0,.04,0,.02,0,.04,0,.07.01.02,0,.04,0,.06,0,.09,0,.18,0,.27,0,.05,0,.11-.02.17-.03,0,0,.02,0,.03,0,.04,0,.07-.02.11-.03.14-.04.28-.09.42-.15.05-.02.11-.05.16-.07.08-.04.16-.07.24-.11.13-.06.26-.13.4-.2.04-.02.07-.04.11-.06.06-.03.12-.06.17-.08.07-.03.16-.03.21.01,0,0,0,0,.01,0,.24.16.45.28.65.37.02.01.05.02.07.03.08.03.16.06.24.08.03,0,.06.02.08.02.03,0,.05.01.08.01.48.08.94-.06,1.71-.41.11-.05.22-.1.33-.15.06-.02.11-.05.17-.07.06-.02.12-.05.18-.07.24-.1.49-.2.76-.3.13-.05.29.03.26.14,0,0,0,0,0,.01,0,.02-.01.05-.02.07-.08.35.02.58.57.63.29.03.53-.08.69-.3.03-.04.05-.08.08-.13,0-.02.02-.03.02-.05.03-.06.05-.13.07-.21,0,0,0-.01,0-.02.05-.19.07-.41.07-.66h0c0-.06.05-.1.11-.12,0,0,0,0,.01,0,.38-.09.78-.17,1.18-.27.25-.06.51-.12.76-.19.1-.03.2-.05.29-.08.02,0,.04-.01.06-.02.03-.01.06-.03.09-.05.1-.06.18-.15.26-.24.06-.06.04-.14-.05-.18ZM58.42,20.8c.03-.25.08-.5.13-.75.02-.1.04-.2.07-.3,0-.03.01-.06.02-.08.01-.06.03-.12.05-.17.02-.06.04-.12.05-.18.04-.14.09-.27.14-.41.02-.06.05-.13.08-.19.05-.13.11-.26.17-.38.03-.05.05-.11.08-.16.09-.18.2-.37.31-.55.02-.03.04-.07.07-.1.05-.07.1-.14.15-.22.03-.04.06-.08.09-.12.26-.35.55-.68.9-1.01.05-.05.1-.1.15-.14.03-.03.07-.06.11-.1.03-.03.07-.06.1-.09,0,0,0,0,.01,0,.12-.08.32-.01.3.11h0s0,.02,0,.02c-.02.13-.05.26-.08.39-.01.06-.03.12-.05.18-.02.07-.04.14-.06.22-.02.07-.04.13-.06.2,0,0,0,0,0,.01-.02.06-.04.12-.06.18-.04.13-.1.26-.15.38-.04.1-.08.19-.13.29h0c-.04.1-.09.19-.14.28,0,0,0,0,0,0-.06.12-.12.24-.19.37-.03.06-.07.12-.1.18-.05.1-.11.19-.17.29-.04.07-.08.13-.12.19-.06.09-.12.19-.18.28-.03.05-.06.1-.1.15-.33.5-.7.98-1.07,1.47,0,0,0,0,0,0-.1.12-.34.06-.33-.08,0-.06.01-.12.02-.17Z"/>
      <path class="cls-4" d="M118.84,20.45s0,0-.01-.01c-.08-.07-.16-.14-.24-.21-.02-.02-.05-.04-.07-.06-.02-.02-.04-.03-.06-.05-.03-.02-.06-.04-.09-.06-.13-.07-.34-.09-.52-.09-1.19.02-2.38,0-3.55.11-1.38.14-2.73.42-4.1.61-1.53.21-3.08.41-4.55-.17-1.1-.43-2.17-.51-3.31-.05-.25.1-.72.06-.98-.05-.65-.26-1.22-.25-1.82.03-.3.14-.6.31-.93.39-.19.05-.52.02-.65-.08-.99-.71-1.12-.72-2.28-.18-.13.06-.27.12-.41.18-.07.03-.14.06-.21.09-.28.12-.57.23-.88.36-.07.03-.15.06-.22.09,0,0,0,0,0,0-.08.03-.17-.01-.17-.08,0,0,0,0,0-.01.12-.86-.24-1.19-1.11-1.03-.35.06-.74.34-.89.59-.18.32-.44.4-.85.44-.59.07-.69-.3-1.01-.49-.01,0-.03-.02-.04-.02-.01,0-.03-.01-.05-.02-.02,0-.03-.01-.05-.02-.02,0-.03-.01-.05-.02-.02,0-.04,0-.05-.01-.02,0-.04,0-.07-.01-.03,0-.06-.01-.09-.01-.12-.02-.24-.03-.36-.04-.07,0-.14.03-.14.08h0s0,.08,0,.12c0,.04,0,.09,0,.13,0,.02,0,.04,0,.06,0,.02,0,.05.01.07,0,.01,0,.03.01.05,0,.02.01.04.02.06,0,.02.01.03.02.05,0,.01.02.03.03.04,0,.01.02.02.03.03,0,.01.02.02.03.03.05.05.11.11.17.17,0,0,0,0,0,0,.04.05.02.11-.05.13-.1.03-.19.06-.29.09-.09.03-.19.06-.28.08-.09.03-.19.06-.28.08-.46.14-.91.27-1.36.4-.19.05-.41.05-.61.04-.81-.04-1.09-.39-.72-.92.15-.22.33-.43.53-.62,1.67-1.6,2.87-3.37,3.72-5.28.24-.54.5-1.08.59-1.63.05-.28-.15-.73-.44-.86-.27-.13-.91-.03-1.22.14-.47.24-.87.6-1.17.96-1.52,1.89-2.63,3.9-3.14,6.08-.11.47-.12,1.02-.47,1.37-.44.43-1.16.74-1.82,1.02-.91.38-1.14.27-1.45-.45-.08-.18-.29-.43-.48-.45-.24-.03-.58.1-.78.24-.48.33-.94.69-1.35,1.08-.03.03-.06.07-.08.1-.01.02-.02.03-.03.05-.05.1-.08.21-.11.32-.02.06.04.11.12.11h.02c.06,0,.13,0,.19,0,.04,0,.07,0,.11,0,.03,0,.06,0,.09,0,.06,0,.11,0,.16-.02.02,0,.03,0,.04,0,.02,0,.03,0,.05-.01.01,0,.02,0,.03-.01.03,0,.05-.02.08-.03.05-.03.09-.05.14-.08.05-.03.09-.06.13-.09.03-.02.07-.05.1-.07.01,0,.02-.02.03-.02.04-.03.07-.05.11-.08.02-.02.04-.04.07-.06.04-.04.09-.07.13-.11.1-.09.2-.17.3-.26.05-.04.14-.04.18,0,0,0,0,0,.01.01.03.03.07.06.1.09.03.03.06.06.1.09.04.03.08.06.11.09.03.02.05.04.08.06.1.07.19.13.29.19.03.01.05.03.08.04.03.01.06.03.08.04,0,0,0,0,.01,0,.02,0,.04.02.07.02.02,0,.03.01.05.02.03.01.06.02.09.02.03,0,.06.01.09.02.06.01.12.02.18.02.03,0,.07,0,.1,0,.37,0,.78-.11,1.31-.33.57-.24,1.11-.53,1.72-.83.05-.02.11-.02.15.01h0s.06.05.09.08c.18.14.36.26.55.36.03.02.07.03.1.05.02.01.05.02.07.03.02.01.04.02.07.03.03.01.07.03.1.04.03.01.07.02.1.03.02,0,.05.02.08.02.02,0,.04.01.06.02.03,0,.07.02.1.02.03,0,.05,0,.08.01.05,0,.11.01.17.02.04,0,.09,0,.13,0,.13,0,.27-.01.41-.04.1-.02.2-.04.29-.06.08-.02.17-.04.25-.06.01,0,.03,0,.04-.01.05-.01.1-.02.15-.04s.1-.02.14-.04c.07-.02.14-.04.21-.06.03,0,.05-.01.08-.02.1-.03.19-.06.29-.08.15-.04.29-.09.44-.13.08-.02.16-.05.24-.07,0,0,.02,0,.03,0,0,0,0,0,0,0,.07-.02.15.02.16.08,0,.03,0,.06.01.09,0,.03.01.06.02.09,0,0,0,0,0,0,0,.03.01.05.02.08,0,.03.02.05.03.08.02.05.04.09.07.13,0,0,0,0,0,.01.01.02.03.04.05.06.02.02.03.04.05.06,0,0,0,0,0,0,.02.02.04.03.06.05.03.03.07.05.11.08,0,0,.02.01.03.01.04.02.08.03.12.05,0,0,.02,0,.03,0,.02,0,.04.01.06.01,0,0,.01,0,.02,0,.02,0,.04,0,.06,0,0,0,0,0,.01,0,0,0,.02,0,.02,0,.02,0,.04,0,.07,0s.04,0,.07,0c.68-.05.85-.42.9-.85,0-.02,0-.05,0-.07,0-.05,0-.09.01-.14,0-.03,0-.07,0-.11,0-.03,0-.06,0-.09,0-.02,0-.04,0-.06,0-.04,0-.08,0-.13,0,0,0-.01,0-.02,0-.05.06-.09.13-.08.01,0,.02,0,.03,0,.08,0,.16,0,.25,0,.11,0,.22,0,.32.01.02,0,.04,0,.06,0,.02,0,.04,0,.06,0,.02,0,.04,0,.06,0,.02,0,.04,0,.05.01.05.01.1.03.15.05.67.31,1.32.3,1.99.06.7-.25,1.36-.53,2.04-.81.37-.15.67-.21.96.13.35.4.92.47,1.51.28.43-.14.81-.35,1.25-.45.3-.07.74-.08.98.03.61.3,1.15.27,1.73.01.9-.39,1.8-.39,2.71,0,.99.43,2.09.57,3.21.44,1.53-.19,3.04-.42,4.56-.64,1.68-.25,3.36-.43,5.07-.19.02,0,.03,0,.05,0,.01,0,.03,0,.04,0,.1,0,.2-.05.31-.09.02,0,.03-.01.05-.02.02,0,.03-.01.05-.02.02,0,.03-.01.04-.02.02,0,.04-.01.05-.02,0,0,0,0,.01,0,.06-.02.08-.08.05-.12ZM85.73,19.8c.02-.07.04-.13.06-.2.02-.07.04-.13.06-.2.01-.04.02-.08.04-.13.02-.07.04-.13.06-.19.1-.3.2-.59.32-.88.06-.14.12-.29.18-.43.03-.07.06-.14.1-.21.07-.15.14-.29.22-.44.03-.06.07-.13.1-.19.04-.07.07-.14.11-.21.03-.05.06-.1.09-.15.05-.09.1-.17.16-.26.04-.07.08-.13.13-.2.04-.07.09-.13.13-.2.12-.17.25-.34.38-.51.04-.05.08-.1.12-.15.11-.13.22-.27.34-.39.04-.05.08-.09.13-.14.05-.06.11-.11.16-.17.11-.11.22-.22.34-.33.06-.05.12-.11.18-.16.06-.05.12-.11.19-.16.07-.06.21-.02.21.05h0s0,.01,0,.02c0,.02,0,.04-.02.06,0,.03-.01.06-.02.09,0,.02,0,.04-.01.05-.05.2-.11.4-.18.6,0,0,0,.01,0,.02-.05.15-.1.29-.16.43-.03.07-.05.14-.09.21-.03.07-.06.14-.09.21-.06.14-.13.28-.2.42-.03.07-.07.14-.11.21,0,.01-.01.02-.02.04-.07.13-.13.25-.21.37,0,0,0,0,0,0-.07.12-.14.24-.22.37-.01.02-.03.04-.04.07-.04.06-.07.12-.11.17-.04.07-.09.14-.14.21-.04.06-.09.13-.13.19-.04.06-.08.12-.13.17-.29.4-.61.79-.96,1.18-.06.06-.11.13-.17.19-.09.09-.17.19-.26.28-.05.06-.11.11-.16.17-.05.06-.11.11-.16.17-.07.07-.24.02-.21-.07h0Z"/>
      <path class="cls-4" d="M83.4,12.66c-.03.08-.13.14-.24.2-.02.01-.04.02-.07.03-.04.02-.08.04-.11.06-.07.03-.16.02-.21-.03-.04-.05-.09-.1-.13-.15-.01-.02-.03-.03-.04-.05-.03-.05-.06-.09-.07-.14,0,0,0-.02,0-.02,0-.01,0-.03,0-.04,0-.02,0-.04,0-.07h0c0-.35.06-.6.11-.98v-.02c0-.15-.07-.15-.2-.05,0,0-.02.01-.03.02-.35.37-.7.56-1.01.93-1.39,1.69-2.18,3.61-3.06,5.46-1.49,3.11-2.81,6.27-4.22,9.4-.26.57-.52,1.15-.93,1.66-.08.09-.18.17-.3.25-.02.01-.05.03-.07.04-.02.01-.04.02-.07.04-.2.11-.4.28-.63.31-.13.02-.14.02-.2-.01-.04-.02-.07-.06-.11-.09-.02-.02-.04-.04-.07-.06-.13-.1-.27-.2-.38-.31-.02-.01-.03-.03-.05-.05-.02-.02-.04-.04-.05-.06-.02-.02-.03-.03-.04-.05-.02-.02-.04-.05-.05-.07,0-.01-.02-.02-.02-.03,0-.02-.02-.03-.02-.05,0-.02-.01-.04-.02-.06-.2-.96-.42-1.95-.28-2.9.42-2.91,1.03-5.8,1.52-8.7.2-1.15.3-2.32.38-3.48,0-.02,0-.04,0-.06,0-.01,0-.03,0-.04,0-.02-.01-.05-.02-.08,0-.02-.01-.03-.02-.05-.02-.05-.05-.09-.08-.14-.02-.03-.04-.06-.06-.08,0-.01-.02-.03-.03-.04-.04-.05-.07-.1-.11-.16,0,0,0,0,0,0-.03-.05-.12-.07-.19-.05,0,0,0,0,0,0-.09.04-.19.07-.29.1-.04.01-.08.03-.12.05-.13.05-.26.11-.35.18,0,0-.02.01-.03.02,0,0-.01.01-.02.02-.01.01-.02.02-.03.03-1.27,1.51-2.26,3.11-2.83,4.85-.07.21-.4.57-.52.55-.55-.09-.49-.46-.34-.73.84-1.55,1.7-3.09,2.61-4.62.21-.35.61-.66,1-.92.8-.53,1.69-.43,2.03.31.26.57.39,1.22.29,1.82-.36,2.16-.91,4.3-1.24,6.46-.33,2.12-.51,4.26-.68,6.39,0,.06,0,.11,0,.17,0,.02,0,.04,0,.06,0,.02,0,.04,0,.06.02.12.05.23.08.35,0,.03.02.05.02.08.03.1.07.19.1.29.08.17.25.19.33.2s.21.02.3-.17h0c.09-.18.19-.36.28-.54.04-.09.09-.17.13-.26.2-.37.39-.75.56-1.12,1.97-4.22,3.89-8.45,5.92-12.66.45-.92,1.22-1.77,1.97-2.6.24-.27.91-.5,1.34-.47.66.05.73.57.76.99.02.3.02.61-.08.89Z"/>
      <path class="cls-4" d="M56.38,20.79h0s-.03.04-.06.06c-.11.07-.2.11-.28.13-.13.04-.22.04-.31,0-.11-.04-.2-.12-.3-.23-.04-.05-.09-.1-.15-.15-.04-.05-.05-.1-.03-.16,0,0,.01-.02.02-.02.07-.08.15-.13.22-.15.12-.04.25-.01.39.05.14.06.29.17.45.28,0,0,.01,0,.02.01.06.05.07.12.03.17Z"/>
      <path class="cls-4" d="M81.49,20.4c-.11.07-.21.11-.29.14-.33.1-.48-.1-.76-.38-.05-.05-.06-.13,0-.18.11-.12.23-.17.35-.17.21,0,.44.17.72.35.1.07.09.18,0,.24Z"/>
    </g>
    <g>
      <path class="cls-1" d="M27.81,26.99s-.02-.02-.03-.03h0s-.04-.02-.06-.03h0s-.03,0-.04-.01c-.04-.01-.08-.02-.12-.03-.76-.23-1.55-.39-2.29-.69-1.97-.79-3.48-2.05-4.09-4.19,0-.03-.01-.05-.02-.07h0c-.02-.07-.05-.14-.08-.19-.01-.02-.02-.04-.03-.05-.01-.02-.02-.03-.03-.05-.01-.02-.02-.03-.04-.04-.01-.01-.03-.03-.04-.04-.12-.11-.28-.16-.47-.14-.03,0-.06,0-.09.01-.06.01-.13.03-.21.05-.02,0-.04.01-.06.02-.22.08-.43.17-.65.25,0,0-.01,0-.02,0-.03-.03-.05-.04-.07-.06-.01,0-.03-.01-.04-.02,0,0,0,0,0,0,0-.03,0-.07.01-.1.03-.32.04-.66.09-.98,0-.03,0-.06.02-.1,0,0,0,0,0,0,.01-.07.03-.14.05-.21.01-.05.03-.11.05-.16.23-.67.54-1.33.9-1.95.14-.25.29-.49.43-.74.09-.16.19-.33.28-.49.05-.08.09-.17.14-.25.09-.17.18-.33.27-.5.04-.08.09-.17.13-.25.04-.08.08-.17.12-.25h0c.06-.13.12-.26.18-.39.06-.13.11-.26.17-.39h0c.05-.13.1-.27.15-.4.02-.05.03-.09.05-.14.03-.09.06-.18.09-.27.38-1.24.62-2.49.49-3.79-.06-.6-.15-1.19-.22-1.79-.05-.42-.14-.82-.27-1.19-.02-.05-.04-.1-.06-.16-.02-.06-.05-.12-.07-.17-.01-.03-.02-.05-.03-.08-.08-.17-.17-.34-.27-.49h0c-.11-.18-.24-.34-.37-.49-.02-.02-.04-.04-.06-.06h0s-.06-.07-.1-.1c-.1-.1-.2-.19-.3-.27-.08-.06-.16-.12-.24-.18-.04-.03-.08-.05-.13-.08-.04-.03-.09-.05-.13-.07-.12-.06-.24-.12-.36-.16-.18-.07-.38-.12-.57-.16-.11-.02-.23-.11-.3-.21-.14-.19-.29-.37-.45-.54-.05-.06-.11-.11-.16-.17-.03-.03-.06-.07-.1-.1-.1-.1-.2-.19-.3-.28h0c-.12-.11-.24-.21-.37-.31t0,0c-.3-.23-.61-.43-.94-.61h0c-.1-.06-.21-.11-.32-.16-.04-.02-.07-.03-.11-.05-.05-.02-.1-.04-.15-.07-.25-.11-.5-.2-.76-.29h0c-.05-.02-.1-.03-.16-.05-.04-.01-.08-.02-.12-.03-.12-.03-.24-.07-.36-.09-1.65-.4-3.3-.77-4.88-1.42-.44-.18-.93-.28-1.4-.32-.24-.02-.48-.03-.71-.02-.05,0-.1,0-.16,0-.04,0-.07,0-.11,0-.05,0-.1,0-.15.01-.21.02-.42.06-.62.11-.06.02-.12.03-.17.05-.03,0-.06.02-.08.03-.4.14-.78.35-1.12.66-.33.3-.68.47-1.09.61-.4.14-.76.33-1.07.59-.03.03-.07.06-.1.09-.17.16-.32.33-.44.54-.02.04-.05.08-.07.12,0,0,0,0,0,0-.03.05-.07.1-.11.15-.01.01-.02.02-.03.03-.04.03-.08.06-.11.09-.6.39-.96.95-1.16,1.56-.05.16-.09.33-.12.5,0,.05-.02.09-.02.14,0,0,0,.02,0,.02-.07.5-.05,1.02.02,1.49.01.07.02.13.03.2.01.07.03.13.04.2.01.06.03.13.05.19h0c.02.06.03.12.05.18,0,0,0,0,0,0s0,0,0,0c0,0,0,.02.01.03,0,0,.01.02.02.02h0s.01.01.02.02c.02.02.04.03.07.05,0,0,0,0,0,0,0,0,0,0,.01,0,.1.04.21-.02.23-.13,0-.05,0-.1,0-.15-.07-.6-.2-1.21-.21-1.81,0-.05,0-.11,0-.16,0,0,0,0,0,0,0-.05,0-.09.01-.14,0-.07.02-.15.04-.22,0-.02.01-.05.02-.07.02-.06.03-.13.05-.19.12-.37.33-.71.62-1.05h0c.01.14.02.21.02.28,0,.08-.01.15-.02.23,0,0,0,0,0,.01-.03.75.1,1.48.37,2.18,0,.02.02.04.02.07,0,.02.01.04.02.07.01.04.02.09.03.13.03.14.03.27.02.4,0,.06-.02.12-.03.17,0,.02-.01.04-.02.06-.05.16-.14.31-.25.46-.26.33-.44.69-.57,1.07-.03.08-.05.16-.07.24-.02.08-.04.16-.06.25,0,.03-.01.06-.01.08,0,.03-.01.06-.01.09,0,.05-.01.1-.02.16,0,0,0,.01,0,.02,0,.05,0,.1-.01.15,0,0,0,0,0,.01-.01.15-.01.31,0,.47,0,.04,0,.07,0,.11,0,.03,0,.06,0,.08,0,.02,0,.04,0,.06,0,.03-.02.07-.03.1-.05.16-.15.28-.31.4-.39.3-.78.61-1.16.93-.1.09-.18.19-.22.3,0,.01,0,.02-.01.03,0,.03-.02.06-.02.09,0,.01,0,.03,0,.04,0,.03,0,.06,0,.09,0,.01,0,.03,0,.04,0,0,0,.02,0,.03,0,.01,0,.03,0,.04,0,.03.02.05.03.08H.2s.02.05.04.08c.15.28.32.56.54.77.18.17.29.35.35.53.01.04.02.07.03.11.03.12.03.25.01.39,0,0,0,.02,0,.03,0,.03,0,.06-.02.09-.01.06-.03.13-.05.19-.02.05-.04.11-.06.17-.01.03-.02.06-.03.09-.02.06-.04.11-.05.17,0,.02-.01.04-.02.07,0,.04-.02.09-.02.13,0,.03,0,.06-.01.08,0,.02,0,.04,0,.06-.01.14-.01.28,0,.42.13,1.05.59,2.02.63,3.1.01.36.05.72.04,1.08,0,.02,0,.04,0,.06,0,0,0,0,0,.01,0,.04,0,.08,0,.11,0,.09-.01.18-.03.28,0,.06-.02.13-.03.19,0,.04-.02.08-.03.12s-.02.08-.04.12c-.01.05-.03.09-.05.14-.01.03-.02.06-.03.09-.03.08-.05.16-.07.25-.01.05-.02.11-.03.16-.02.11-.02.22-.02.33,0,.01,0,.03,0,.04,0,.03,0,.06,0,.08,0,.01,0,.03,0,.04.14.8.67,1.36,1.42,1.62.56.19,1.17.25,1.77.29,1.6.11,2.76.84,3.44,2.31.04.08.07.16.11.24.02.04.03.08.05.12.03.08.07.16.1.24h0c.03.08.06.16.09.25h0c.03.08.06.17.08.25h0c.06.18.11.36.16.54.22.78.35,1.59.45,2.4.04.32.05.57.01.77,0,.06-.02.11-.04.16-.11.32-.36.53-.85.81-.53.3-1.03.66-1.5,1.04-.2.16-.33.37-.41.59,0,.03-.02.06-.03.08-.03.1-.05.21-.06.31-.02.15-.02.31-.01.46,0,.01,0,.02,0,.03,0,0,0,.01,0,.02,0,0,0,.01,0,.02,0,0,0,.01.01.02s0,.01.01.02c.02.02.04.04.06.06h0c.06.04.14.04.2,0,0,0,0,0,.01-.01.03-.04.06-.07.08-.12,0,0,0-.02.01-.03,0-.02,0-.04.01-.06,0,0,0,0,0,0,0-.05,0-.1,0-.15,0-.03,0-.07,0-.1,0-.02,0-.04,0-.06,0-.02,0-.05,0-.07,0-.02,0-.03,0-.05,0-.03,0-.06.02-.08,0-.03.02-.06.03-.1.08-.25.24-.46.47-.64.26-.2.53-.4.82-.55,0,0,0,0,0,0,.06-.03.13-.07.19-.1,0,0,0,0,0,0,.04-.02.08-.04.12-.06.04-.02.08-.04.13-.07.04-.02.08-.04.12-.06,0,0,0,0,0,0,.04-.02.07-.04.11-.06.38-.22.7-.47.83-.86.01-.04.02-.08.03-.13h0c.17.14.36.3.55.46t0,0c.19.16.38.32.58.48.13.1.25.14.35.13.01,0,.02,0,.03,0,0,0,.02,0,.03,0,.11-.03.19-.13.24-.28,0-.03.02-.06.02-.09,0-.03.01-.06.01-.09,0,0,0,0,0-.01,0-.05,0-.1,0-.15,0,0,0,0,0,0,0-.02,0-.04,0-.05-.12-.86-.24-1.72-.39-2.58-.02-.13-.03-.24,0-.35,0-.01,0-.03,0-.05,0-.02,0-.04.02-.06,0-.01,0-.03.01-.04.04-.11.11-.22.2-.31.32-.32.63-.65.98-.92,1.63-1.3,3.27-2.59,4.92-3.88.24-.19.47-.37.72-.55.12-.09.24-.18.36-.26.61-.44,1.25-.83,1.94-1.15.05-.02.09-.04.13-.06.03-.01.05-.02.08-.03.05-.02.1-.04.14-.05.35-.11.48.02.63.53.27.89.77,1.63,1.41,2.29.04.04.09.09.13.13.04.04.09.08.13.13.04.04.09.08.13.12.13.12.27.24.41.34.09.07.19.14.28.21.07.05.14.1.22.15.07.05.15.1.22.14.07.05.15.09.23.13.17.1.34.19.52.28.04.02.09.04.13.06.09.04.18.08.27.12.04.02.09.04.14.06.18.08.36.15.55.22h0c.14.05.28.1.42.15.05.02.09.03.14.05h0c.17.05.34.1.51.15.17.05.34.09.52.14.13.03.25.07.38.07,0,0,0,0,.01,0h0s.02,0,.03,0c0,0,.02,0,.03,0,.06-.02.13-.06.14-.1h0c.02-.09-.01-.21-.07-.28ZM20.51,5.62s.09.04.13.07c.04.02.09.05.13.08h0s.04.03.06.04c.06.04.12.08.17.13.04.03.08.06.11.09.06.05.11.1.16.15.04.04.07.07.1.11.03.04.07.08.1.11.05.06.09.12.14.18h0c.05.07.09.13.13.2h0s.05.09.08.14c.06.11.11.23.16.35.06.16.09.31.11.47h0c-.69-.76-1.34-1.48-2.04-2.25h0s.08.01.12.02c.05.01.1.02.14.04.07.02.13.05.2.08ZM6.17,1.27s.02-.01.04-.02c.01,0,.02-.01.04-.02.02-.01.05-.03.07-.04,0,0,.02-.01.03-.02.06-.04.13-.08.19-.12.07-.04.15-.08.23-.12.1-.04.21-.08.31-.12.69-.24,1.4-.29,2.09-.17.07.01.14.02.2.04.03,0,.07.02.1.02.07.02.13.03.2.05h0c.13.04.27.08.4.14.32.12.64.24.95.35h0c.24.08.48.16.72.24h0c.3.09.61.18.91.27.1.03.2.06.3.08.33.09.65.17.98.26h0c.44.11.87.21,1.31.31,1.28.29,2.39.93,3.31,1.87.12.12.22.25.32.38.03.04.05.1.1.2h0c-1.52.12-3,.61-4.5.11-1.44-.48-2.77-1.14-3.76-2.35-.06-.07-.12-.17-.19-.24-.08-.07-.17-.09-.3,0,0,0,0,0,0,0,0,0,0,0,0,0h0c-.02.06.09.38.2.51.09.11.19.22.28.33h0c.16.17.32.33.5.49h0c.13.11.26.22.4.33.05.03.09.07.14.1.05.04.11.08.17.12,0,0,0,0,.02.01.06.04.11.08.17.11.06.04.12.08.18.11.06.04.12.07.19.11.06.04.13.07.19.1.05.03.11.05.16.08.08.04.15.07.23.1.03.01.07.03.1.04.06.03.12.06.17.15h0c-.23-.04-.46-.08-.68-.13-.24-.06-.47-.14-.71-.22-.11-.04-.22-.09-.33-.13-.63-.2-1.18-.46-1.65-.86-.05-.05-.11-.1-.16-.15-.03-.03-.07-.07-.1-.1-.02-.02-.03-.04-.05-.05-.02-.02-.04-.05-.06-.07-.06-.07-.12-.15-.18-.23h0c-.04-.05-.08-.11-.11-.17h0s-.02-.03-.03-.04-.02-.03-.03-.04c-.04-.06-.08-.12-.12-.18h0c-.04-.06-.08-.11-.13-.16-.02-.03-.05-.05-.07-.08-.03-.03-.05-.06-.08-.08-.05-.05-.11-.11-.16-.15-.02-.02-.04-.03-.06-.05-.03-.02-.06-.05-.09-.07-.19-.14-.4-.26-.62-.35-.04-.02-.07-.03-.11-.05-.02,0-.05-.02-.08-.03-.05-.02-.1-.04-.15-.05-.06-.02-.12-.04-.18-.05h0s-.08-.02-.11-.03c-.03,0-.07-.01-.1-.02-.03,0-.06-.01-.09-.02-.03,0-.07-.01-.1-.02-.04,0-.09-.01-.13-.02-.09-.01-.17-.02-.26-.03h0s-.09,0-.13,0c-.08,0-.16-.02-.24-.02-.09-.02-.09-.06-.05-.1,0,0,0,0,0,0ZM4.7,2.08s.05-.02.08-.03c.05-.02.11-.03.16-.05.03,0,.06-.01.08-.02.06-.01.12-.03.18-.04.04,0,.08-.01.11-.02.06,0,.12-.02.18-.03.02,0,.03,0,.05,0,.05,0,.1-.01.15-.02.38-.03.78-.03,1.19.02.03,0,.06,0,.09.01h0c.07.01.14.03.22.05.02,0,.05.01.07.02.04.01.09.03.13.04h0c.07.02.14.05.21.08.03.01.07.03.1.04h0c.1.05.2.1.3.16.07.04.13.08.19.12.09.06.19.13.28.2.01.01.03.02.04.03.03.02.06.05.08.07h0s.05.04.08.07c.05.04.1.09.14.14.04.04.07.08.11.11.05.06.1.12.14.18.01.02.03.04.04.06.06.08.11.16.15.24h0s.02.03.02.05c.01.03.03.06.04.09,0,.01.01.03.02.05,0,.02.01.04.02.06,0,.02,0,.03.01.05,0,.02,0,.03.01.05,0,0,0,.01,0,.02h0c-1.01.11-1.99.14-2.89-.46-.55-.37-1.15-.59-1.81-.63-.06,0-.12,0-.19,0,0,0,0,0,0,0-.06,0-.13,0-.19,0-.1,0-.2,0-.29,0-.05,0-.1,0-.16,0s-.1,0-.15,0c.15-.3.5-.54.97-.7ZM2.98,5.42c0-.06-.02-.12-.02-.19-.02-.2-.03-.41-.01-.61,0-.04,0-.08,0-.11,0-.11.03-.22.05-.34.01-.08.03-.15.05-.23,0-.02.01-.04.02-.06.04-.14.11-.25.2-.33.01-.01.03-.02.04-.04h0s.05-.04.07-.05c.07-.05.14-.08.23-.11.02,0,.04-.01.06-.02,1.03-.29,1.95-.04,2.86.56h0s0,0,0,0c-.1.04-.17.08-.25.1-.01,0-.02,0-.03,0-.02,0-.04,0-.06.01-.03,0-.06.02-.09.02-.05.01-.1.03-.14.04-.62.2-1.08.59-1.46,1.08-.04.05-.07.1-.11.15-.04.05-.07.1-.1.16-.03.05-.07.11-.1.16-.03.05-.06.11-.09.17-.02.03-.03.06-.05.09-.16.31-.36.59-.58.97-.09-.2-.18-.39-.25-.58-.02-.06-.04-.13-.06-.19h0c-.03-.11-.06-.21-.09-.32-.01-.05-.02-.09-.03-.14,0,0,0-.02,0-.03-.01-.06-.02-.12-.03-.19ZM2.34,10.09c.02-.17.04-.34.07-.53,0-.05.01-.1.02-.15,0-.02,0-.05,0-.07h0s.02.02.04.04h0s.04.05.06.07c0,.01.02.02.03.04.02.02.03.05.05.07h0s.04.07.06.1c.01.02.02.05.03.07h0s.02.07.03.1c.01.06.01.12,0,.17,0,.03-.01.06-.02.08-.05.15-.19.27-.4.34.01-.11.03-.21.04-.31,0,0,0-.02,0-.03ZM1.39,16.65s0-.03,0-.04c0,0,0-.01,0-.02-.01-.09-.03-.18-.04-.27,0-.04-.01-.08-.02-.12,0-.03,0-.06,0-.09,0-.12,0-.23.03-.33.01-.04.03-.09.04-.13.01-.04.03-.09.04-.13,0-.04.02-.07.03-.11,0-.03.02-.07.03-.1.06-.24.1-.49.09-.72,0-.04,0-.08,0-.12,0-.02,0-.05-.01-.07,0-.04-.02-.08-.03-.12,0-.02-.01-.04-.02-.06-.02-.07-.05-.13-.08-.2-.01-.02-.02-.04-.04-.06-.01-.02-.03-.04-.04-.06,0,0,0,0,0,0-.01-.02-.03-.04-.04-.06-.01-.02-.02-.03-.04-.05,0-.01-.02-.02-.03-.04-.02-.02-.04-.05-.06-.07-.01-.01-.02-.02-.03-.04,0,0-.01-.01-.02-.02.02-.02.05-.05.07-.07,0-.01.02-.02.03-.03h0c.41.12.83.25,1.24.37.06.02.12.06.18.09,0,0,.01,0,.02,0,.02,0,.03,0,.05.01h0s.01,0,.02,0c.01,0,.03,0,.04,0,.05,0,.09-.02.14-.03.08-.03.11-.12.09-.2,0-.02-.01-.03-.02-.05,0,0,0-.01,0-.02,0-.01-.01-.03-.02-.04-.02-.03-.04-.05-.06-.07,0,0,0,0,0,0-.5-.18-1.01-.33-1.51-.49-.03-.01-.07-.02-.1-.03-.24-.08-.49-.17-.82-.29.02-.01.03-.03.05-.04.05-.04.09-.08.13-.12.04-.04.08-.08.12-.11.11-.11.21-.2.31-.29h0c.05-.05.11-.09.16-.14.11-.09.21-.18.32-.27.05-.05.11-.09.16-.14.36-.3.72-.61,1.04-.95.2-.21.33-.39.39-.57.11-.31,0-.6-.28-1.04-.11-.17-.14-.31-.09-.46.02-.05.04-.1.07-.15.27-.41.55-.82.81-1.24.27-.44.52-.88.78-1.33.42-.71.97-1.18,1.66-1.4.33-.11.69-.16,1.08-.15.56,0,1.12-.01,1.67,0h0c.17,0,.35.02.52.03.17.02.35.04.52.07.84.15,1.64.53,2.53.84,0,0,0,0,0,0,0,.01-.02.03-.03.04-.02.02-.03.05-.05.07h0s-.03.05-.04.07c-.01.02-.03.04-.04.06-.06.09-.11.16-.18.22-.27.24-.48.59-.61.97-.14.41-.19.88-.13,1.34,0,.06.02.12.03.18.01.06.02.12.04.18.01.05.02.09.04.13s.03.09.05.13h0c.06.15.12.29.21.43.18.3.39.59.62.86.91,1.06,1.2,2.29,1.11,3.65-.02.34-.09.7.29.9.03.02.06.03.09.03.01,0,.02,0,.03,0,.03,0,.05,0,.08,0,.02,0,.03,0,.05,0,.01,0,.03,0,.04,0,.18-.05.38-.23.57-.48,0,0,0,0,0,0,.11-.15.21-.3.31-.44.17-.25.35-.49.56-.71h0s.05-.05.07-.08c.03-.03.05-.05.08-.08.11-.1.23-.2.35-.29.03-.02.06-.04.1-.07.11-.07.21-.13.33-.17.04-.02.09-.03.13-.05.27-.08.52-.08.74,0,.06.02.11.05.16.08t0,0s.05.03.07.05h0s.05.04.07.06h0s.02.02.03.03c.02.02.04.05.06.07.02.02.03.04.05.06.11.15.18.33.22.54.05.32.05.67-.03.97-.02.08-.05.16-.07.23-.32.95-.92,1.68-1.77,2.18-.07.04-.14.08-.21.11-.11.06-.22.11-.33.16-.05.02-.1.04-.15.06-.06.02-.11.03-.17.04-.05.01-.1.02-.14.02-.29.03-.57-.04-.86-.21-.19-.12-.34-.16-.46-.13-.1.02-.17.1-.21.24,0,.03-.02.06-.03.09,0,.02-.01.05-.01.08,0,0,0,0,0,.01,0,.03,0,.06-.01.09,0,.01,0,.03,0,.05,0,.05,0,.1-.02.15,0,.05-.01.1-.02.15,0,.02,0,.03,0,.05-.05.37-.12.72-.23,1.07-.02.07-.04.14-.07.2-.08.25-.19.49-.31.72-.03.05-.05.1-.08.15s-.06.1-.09.15c-.03.05-.06.1-.09.14-.03.05-.06.09-.1.14-.02.02-.03.04-.05.07-.03.04-.07.09-.1.13-.18.21-.38.39-.61.54-.04.03-.09.06-.14.09-.02.01-.05.03-.07.04-.05.03-.1.05-.15.08-.12.06-.25.11-.39.16-.03,0-.05.02-.08.02-.09.02-.17.05-.26.07-.09.02-.17.05-.26.07-.26.07-.52.14-.78.21-.09.02-.17.04-.26.07,0,0,0,0,0,0-.22.06-.43.11-.65.16-.65.16-1.31.32-1.96.48-1.17.29-2.34.57-3.5.85-.17.04-.34.08-.52.11-.79.12-1.21-.35-1.01-1.13.01-.05.02-.09.04-.14,0-.01,0-.03.01-.04,0-.02.01-.03.02-.05.01-.05.03-.09.05-.13.05-.1.08-.2.12-.3.03-.08.05-.17.07-.25.03-.14.05-.27.06-.41,0,0,0-.02,0-.03,0-.04,0-.08,0-.12,0-.09,0-.19,0-.28,0-.09-.01-.18-.02-.27-.01-.09-.02-.18-.04-.27,0-.03,0-.05-.01-.07,0-.02,0-.05,0-.07,0-.02,0-.03,0-.04-.02-.15-.01-.26.02-.35,0-.02.01-.03.02-.05.08-.17.26-.27.59-.41.06-.02.12-.05.18-.08.11-.05.22-.1.33-.15h0c.08-.04.17-.08.25-.12.42-.2.84-.43,1.26-.64.14-.07.26-.2.37-.32.08-.09.14-.19.18-.29.01-.04.03-.08.03-.13.01-.09.01-.18,0-.27,0-.03-.01-.05-.02-.08h0s-.01-.03-.02-.05c0-.01-.01-.03-.02-.04-.05-.09-.13-.18-.22-.26-.72-.57-1.55-.85-2.45-.88-.04,0-.09,0-.13,0,0,0,0,0,0,0-.03,0-.06,0-.09,0-.02,0-.04,0-.06,0-.05,0-.09.02-.14.03-.26.08-.48.26-.57.54-.04.13-.06.28-.04.46,0,.02,0,.04,0,.06,0,.04,0,.08,0,.12,0,0,0,0,0,0,0,0,0,0,0-.01ZM1.42,16.81c.21.21.43.4.64.61.07.07.14.14.2.21h0s.07.08.11.13c.03.04.06.07.08.1,0,.01.01.02.02.03,0,.01.02.03.02.04.05.09.07.16.05.22-.02.09-.12.15-.3.21-.03,0-.06.02-.09.03-.09.03-.18.05-.32.08-.14-.56-.28-1.12-.42-1.67,0,0,0,0,0,0ZM3.78,17.79h0s-.06.03-.09.05h0c-.06.03-.13.06-.19.08,0,0,0,0,0,0-.11.04-.22.07-.35.09-.07.01-.17-.06-.22-.13-.24-.32-.47-.64-.71-.96.06-.03.12-.06.19-.08.13-.04.27-.07.43-.09.05,0,.09,0,.14,0,.08,0,.16,0,.23,0,.03,0,.07,0,.1,0,0,0,0,0,0,0,.07,0,.14.01.21.02,0,0,0,0,0,0,.05,0,.1.02.15.03.04,0,.08.02.12.03.03,0,.06.01.09.02.02,0,.03,0,.05.01.1.03.19.06.27.1h0s.04.02.05.03c.01,0,.03.02.04.02.03.02.06.03.08.05s.05.04.08.05c.02.02.05.04.07.06h0s.02.02.03.03h0c-.13.11-.26.22-.4.33-.06.05-.12.09-.19.13-.06.04-.13.08-.19.12ZM4.52,16.61s0,0,0,0c-.03-.01-.05-.02-.08-.03-.03-.01-.06-.02-.09-.03-.06-.02-.11-.04-.17-.06-.03,0-.06-.02-.09-.03-.05-.01-.1-.03-.15-.04-.04,0-.07-.02-.11-.03-.03,0-.07-.01-.1-.02-.1-.02-.2-.04-.3-.05-.04,0-.08,0-.12-.01-.06,0-.12,0-.18-.01h0c-.42-.02-.85.03-1.28.14,0,0,0-.01,0-.02,0-.02,0-.03,0-.05,0-.01,0-.02,0-.03,0-.03,0-.05,0-.08,0-.01,0-.02,0-.04,0-.02.01-.04.02-.06.04-.12.13-.19.23-.22.05-.02.11-.03.18-.03.82-.03,1.56.21,2.24.68ZM18.75,22.1c-.02.07-.08.13-.17.2-2.3,1.78-4.6,3.57-6.9,5.36-.3.23-.56.5-.84.76-.2.19-.34.39-.41.62-.01.03-.02.07-.03.1,0,.03-.01.06-.02.09,0,.02,0,.04,0,.06,0,.03,0,.07,0,.1,0,0,0,0,0,.01,0,.15,0,.3.04.46.15.71.27,1.43.39,2.15,0,.01,0,.02,0,.03h0c0,.05,0,.11,0,.16h0s0,.06,0,.09c0,.03,0,.06,0,.09-.01,0-.02,0-.03.01t0,0s-.06.02-.09.03c-.04-.03-.08-.06-.11-.1-.03-.02-.06-.05-.08-.07-.05-.05-.11-.1-.16-.15-.03-.02-.05-.05-.08-.08-.07-.07-.13-.13-.19-.2-.06-.07-.12-.14-.18-.21-.04-.05-.07-.1-.11-.15-.02-.02-.03-.04-.05-.07-.03-.04-.06-.09-.08-.13,0,0,0,0,0,0-.07-.12-.13-.24-.18-.37-.01-.03-.02-.05-.03-.08-.02-.05-.03-.09-.05-.14-.05-.14-.08-.29-.11-.44-.22-1.34-.55-2.64-1.17-3.86-.16-.32-.34-.6-.54-.85-.03-.04-.06-.07-.09-.1-.03-.04-.07-.08-.1-.11-.04-.04-.08-.08-.12-.12-.14-.14-.29-.26-.45-.38h0c-.06-.05-.13-.09-.19-.13-.03-.02-.07-.04-.1-.06h0c-.06-.04-.12-.07-.18-.1-.09-.05-.19-.09-.28-.13-.1-.04-.2-.08-.3-.11-.07-.02-.14-.04-.2-.07h0c-.1-.03-.19-.05-.29-.08-.03,0-.07-.01-.1-.02-.02,0-.04,0-.06-.01-.06-.01-.12-.02-.18-.03-.18-.03-.36-.05-.55-.07-.45-.04-.89-.09-1.33-.15-.11-.01-.22-.06-.32-.09,0-.03,0-.07,0-.1h0c.94-.24,1.88-.49,2.83-.72,1.55-.36,3.11-.69,4.65-1.06.12-.03.24-.06.35-.1.02,0,.04-.01.06-.02.02,0,.04-.01.06-.02.09-.03.18-.06.27-.1.05-.02.1-.04.15-.06.06-.03.13-.06.19-.09.04-.02.09-.04.13-.07.04-.02.07-.04.1-.06.08-.04.15-.09.22-.13.07-.05.14-.09.21-.14,0,0,0,0,0,0,.04-.03.07-.05.11-.08.02-.01.04-.03.06-.05.03-.03.07-.05.1-.08.02-.02.05-.04.07-.06.03-.03.06-.06.09-.08.37-.36.67-.78.9-1.26.06-.12.11-.24.16-.36.03-.08.06-.17.09-.25,0-.03.02-.06.03-.08.02-.07.04-.14.06-.21,0-.03.01-.06.02-.08.02-.09.04-.17.06-.26,0-.02,0-.04.01-.06,0-.04.02-.09.03-.13s.02-.09.03-.14c0-.01,0-.03,0-.04,0,0,0,0,0-.01,0-.02,0-.04,0-.06,0-.04,0-.08.01-.12,0-.02,0-.04,0-.06,0-.04.01-.08.02-.12h0s.02-.08.03-.11c.02-.07.05-.13.1-.17.01,0,.02-.02.04-.02.05-.01.11,0,.18.01.05.01.09.02.14.04.04.01.08.02.12.03.07.02.14.03.2.03.07,0,.14,0,.21,0,.03,0,.07,0,.1,0,.02,0,.05,0,.07,0,.07,0,.15-.01.22-.02.06,0,.13-.02.19-.03.02,0,.04,0,.07-.01.02,0,.03,0,.05-.01.02,0,.04-.01.07-.02.04-.01.08-.03.13-.05.27-.11.51-.24.74-.39.07-.04.14-.09.2-.14.19-.13.36-.28.52-.44.03-.03.06-.06.09-.09.21-.22.39-.46.54-.73.04-.07.08-.13.11-.2.03-.05.05-.1.08-.16.02-.05.05-.11.07-.16.02-.05.04-.11.07-.17.02-.06.04-.11.06-.17.06-.18.11-.36.15-.55.22-1.07-.33-2.08-1.27-2.23-.19-.03-.37-.03-.54,0-.03,0-.06.01-.08.02-.04,0-.07.02-.11.03-.02,0-.04.01-.06.02-.36.13-.68.37-.96.67-.02.02-.04.04-.06.07-.07.08-.14.17-.21.25-.02.03-.04.06-.07.09h0c-.05.07-.1.14-.15.22-.03.05-.07.1-.1.15-.02.02-.03.05-.05.07-.03.05-.07.09-.1.14,0,0,0,0,0,0-.04.05-.07.09-.11.14h0c-.15.18-.34.33-.52.49-.03-.22-.08-.44-.1-.66-.06-.63-.1-1.26-.16-1.93h0c.11.04.24.07.36.13.11.05.23.09.34.12,0,0,0,0,0,0,.05.01.09.02.14.03.02,0,.05,0,.07.01h0c.08.01.16.02.24.03.09,0,.17,0,.26,0,.07,0,.13,0,.2-.01,0,0,.01,0,.02,0,.08,0,.15-.02.23-.04.08-.02.16-.03.23-.06.04,0,.07-.02.11-.03.04-.01.08-.03.12-.04.04-.01.08-.03.12-.04.6-.19,1.15-.16,1.6.05.05.03.11.06.16.09t0,0s.07.05.11.08h0c.05.04.1.08.15.13h0s.1.1.14.15h0s.03.03.04.05c.03.03.05.07.07.1.01.02.02.03.03.05h0s.02.04.03.05c.02.04.04.07.06.11.02.04.04.08.06.12s.03.08.05.12c0,.02.02.04.02.06.03.08.05.17.07.27h0s.02.09.03.14h0s0,.06.01.09c0,.07.02.14.02.21h0s0,.05,0,.07c0,.17,0,.34-.02.5,0,.03,0,.07-.01.1-.01.09-.02.19-.04.28-.01.08-.03.16-.05.24-.02.07-.03.15-.05.22-.01.04-.02.08-.03.12-.03.12-.07.24-.1.35-.02.08-.05.16-.07.23-.02.05-.03.1-.05.15,0,.02-.02.05-.02.07,0,.03-.02.05-.03.08,0,.02-.02.05-.02.07,0,.02-.02.05-.02.07,0,.02-.02.05-.02.07h0s-.02.05-.02.07c0,.02-.02.05-.02.07-.09.28-.18.56-.26.84-.02.06-.03.12-.05.18-.02.07-.04.14-.05.22-.03.12-.05.24-.07.37,0,.06-.02.13-.02.19,0,.01,0,.03,0,.04,0,.03,0,.06,0,.09,0,.12-.01.23,0,.35,0,.03,0,.06,0,.09.06,1.15.22,2.28.97,3.22.01.02.03.04.04.05h0s.02.03.03.05h0c.03.06.03.11,0,.16ZM19.23,19.79c-.03.08-.05.17-.08.25-.01.05-.03.11-.04.16-.03.11-.05.23-.07.35,0,.01,0,.02,0,.04,0,.04-.01.07-.01.11-.03.23-.04.47-.06.77h0c-.47-.46-.56-1-.69-1.54-.09-.37-.13-.73-.14-1.09,0-.08,0-.16,0-.25,0-.03,0-.05,0-.08,0-.01,0-.02,0-.03,0-.09,0-.17.02-.26,0-.03,0-.06,0-.1,0-.05,0-.09.02-.14,0-.03,0-.06.01-.09,0,0,0,0,0,0,.02-.12.03-.23.06-.35.02-.12.05-.23.08-.35,0-.03.01-.06.02-.09,0-.03.02-.06.02-.09,0-.02.01-.05.02-.07.01-.04.02-.08.03-.12.02-.06.04-.13.06-.19.02-.06.04-.13.06-.19.02-.05.03-.1.05-.15.03-.09.06-.18.09-.27.01-.04.03-.09.04-.13l.04-.14c.06-.2.12-.41.17-.61.02-.09.04-.17.06-.26.03-.14.06-.28.09-.42.02-.12.04-.24.06-.36.16-1.03-.15-1.94-.96-2.63-.07-.06-.15-.12-.22-.17h0s-.06-.04-.09-.06c-.02-.01-.04-.02-.06-.04-.04-.02-.08-.04-.12-.06-.02,0-.04-.02-.06-.03-.02,0-.03-.01-.05-.02-.03-.01-.07-.03-.1-.04-.03-.01-.07-.02-.1-.03-.02,0-.03,0-.05-.01-.03,0-.07-.02-.1-.02-.02,0-.03,0-.05,0-.03,0-.06,0-.09,0-.12-.01-.25-.01-.38,0-.03,0-.05,0-.08,0,0,0-.02,0-.02,0-.02,0-.05,0-.07.01-.07.01-.15.03-.22.05-.36.11-.73.2-1.09.27-.64.11-1.23-.08-1.65-.53-.14-.15-.28-.31-.42-.46h0c-.07-.08-.14-.16-.21-.24h0c-.2-.24-.4-.48-.59-.73-.06-.08-.12-.17-.18-.25h0c-.06-.09-.11-.17-.17-.26-.06-.1-.12-.21-.16-.31,0-.02-.02-.04-.03-.06-.02-.04-.03-.09-.04-.13-.02-.06-.03-.12-.04-.17,0,0,0,0,0,0-.01-.07-.03-.14-.03-.21,0-.1-.01-.19,0-.29,0-.03,0-.06,0-.09,0-.04,0-.07.01-.11.01-.08.03-.17.05-.25.01-.06.03-.11.05-.17.13-.38.35-.73.67-1.03.21-.2.42-.37.67-.46.17-.06.37-.08.6-.04,1.63.28,3.25.11,4.85-.18.57-.1.96.04,1.32.53.18.24.36.48.56.7.06.08.13.15.2.23.27.3.55.59.82.88.42.44.7.92.87,1.45,0,.03.02.06.03.08.03.09.05.19.08.28,0,.04.02.09.03.13.01.07.02.14.04.21,0,.04.01.09.02.13,0,.07.02.13.02.2,0,.07.01.13.02.2h0c0,.11.01.21.01.32h0s0,.07,0,.11c0,.25,0,.5-.03.75,0,0,0,.01,0,.02,0,.09-.01.17-.02.26,0,.05-.01.1-.02.16-.01.13-.03.25-.05.38-.03.17-.06.33-.09.5-.02.09-.04.19-.06.28-.02.07-.03.14-.05.2-.03.14-.07.27-.11.41-.04.13-.08.27-.13.4-.19.56-.42,1.1-.68,1.64-.28.57-.61,1.12-.93,1.67-.08.14-.17.28-.25.42,0,0,0,0,0,0-.03.06-.06.11-.1.17-.06.11-.13.22-.19.33,0,0,0,0,0,0-.06.11-.12.22-.18.34-.16.31-.31.63-.43.96-.01.04-.03.08-.04.12Z"/>
      <path class="cls-2" d="M27.81,26.99s-.02-.02-.03-.03h0s-.04-.02-.06-.03h0s-.03,0-.04-.01c-.04,0-.08-.02-.12-.03-.76-.23-1.55-.39-2.29-.69-1.97-.79-3.48-2.05-4.09-4.19,0-.03-.01-.05-.02-.07h0c-.02-.07-.05-.14-.08-.19-.01-.02-.02-.04-.03-.05-.01-.02-.02-.03-.03-.05-.01-.02-.02-.03-.04-.04-.01-.01-.03-.03-.04-.04-.12-.11-.28-.16-.47-.14-.03,0-.06,0-.09.01-.06.01-.13.03-.21.05-.02,0-.04.01-.06.02-.22.08-.43.17-.65.25,0,0-.01,0-.02,0-.03-.03-.05-.04-.07-.06-.01,0-.02-.02-.04-.03h0s0-.07.01-.1c.03-.32.04-.66.09-.98,0-.03,0-.06.02-.1,0,0,0,0,0,0,.01-.07.03-.14.05-.21.01-.05.03-.11.05-.16h0c.23-.67.54-1.33.9-1.95.14-.25.29-.49.43-.74.09-.16.19-.33.28-.49.05-.08.09-.17.14-.25.09-.17.18-.33.27-.5.04-.08.09-.17.13-.25.04-.08.08-.17.12-.25h0c.06-.13.12-.26.18-.39.06-.13.11-.26.17-.39h0c.05-.13.1-.27.15-.4.02-.05.03-.09.05-.14.03-.09.06-.18.09-.27.38-1.24.62-2.49.49-3.79-.06-.6-.15-1.19-.22-1.79-.05-.42-.14-.82-.27-1.19-.02-.05-.04-.1-.06-.16-.02-.06-.05-.12-.07-.17-.01-.03-.02-.05-.03-.08-.08-.17-.17-.34-.27-.49h0c-.11-.18-.24-.34-.37-.49-.02-.02-.04-.04-.06-.06h0s-.06-.07-.1-.1c-.1-.1-.2-.19-.3-.27-.08-.06-.16-.12-.24-.18-.04-.03-.08-.05-.13-.08-.04-.02-.09-.05-.13-.07-.12-.06-.24-.12-.36-.16-.18-.07-.38-.12-.57-.16-.11-.02-.23-.11-.3-.21-.14-.19-.29-.37-.45-.54-.05-.06-.11-.11-.16-.17-.03-.03-.06-.07-.1-.1-.1-.1-.2-.19-.3-.28h0c-.12-.11-.25-.21-.37-.31t0,0c-.3-.23-.61-.43-.94-.61h0c-.1-.06-.21-.11-.32-.16-.04-.02-.07-.03-.11-.05-.05-.02-.1-.04-.15-.07-.25-.11-.5-.2-.76-.29h0c-.05-.02-.1-.03-.16-.05-.04-.01-.08-.02-.12-.03-.12-.03-.24-.07-.36-.09-1.65-.4-3.3-.77-4.88-1.42-.44-.18-.93-.28-1.4-.32-.24-.02-.48-.03-.71-.02-.05,0-.1,0-.16,0-.04,0-.07,0-.11,0-.05,0-.1,0-.15.01-.21.02-.42.06-.62.11-.06.02-.12.03-.17.05-.03,0-.06.02-.08.03-.4.14-.78.35-1.12.66-.33.3-.68.47-1.09.61-.4.14-.76.33-1.07.59-.03.03-.07.06-.1.09-.17.16-.32.33-.44.54-.02.04-.05.08-.07.12,0,0,0,0,0,0-.03.05-.07.1-.11.15-.01.01-.02.02-.03.03-.04.03-.08.06-.11.09-.6.39-.96.95-1.16,1.56-.05.16-.09.33-.12.5,0,.05-.02.09-.02.14,0,0,0,.02,0,.02-.07.5-.05,1.02.02,1.49.01.07.02.13.03.2.01.07.03.13.04.2.01.06.03.13.05.19h0c.02.06.03.12.05.18,0,0,0,0,0,0,0,0,0,0,0,0,0,0,0,.02.01.03,0,0,.01.02.02.02h0s.01.01.02.02c.02.01.04.03.06.04,0,0,0,0,0,0,0,0,0,0,0,0,0,0,0,0,.01,0,.1.04.21-.02.23-.13,0-.05,0-.1,0-.14-.07-.6-.2-1.21-.21-1.81,0-.05,0-.11,0-.16,0,0,0,0,0,0,0-.05,0-.09.01-.14,0-.07.02-.15.04-.22,0-.02.01-.05.02-.07.02-.06.03-.13.05-.19.12-.37.33-.71.62-1.05.01.14.02.21.02.28,0,.08-.01.15-.01.23,0,0,0,0,0,.01-.03.75.09,1.48.37,2.18,0,.02.02.04.02.07,0,.02.01.04.02.07.01.04.02.09.03.13.03.14.03.27.02.4,0,.06-.02.12-.03.17,0,.02-.01.04-.02.06-.05.16-.14.31-.25.46-.26.33-.44.69-.57,1.07-.03.08-.05.16-.07.24-.02.08-.04.16-.06.25,0,.03-.01.06-.01.08,0,.03-.01.06-.01.09,0,.05-.01.1-.02.16,0,0,0,.01,0,.02,0,.05,0,.1-.01.15,0,0,0,0,0,.01-.01.15-.01.31-.01.47,0,.04,0,.07,0,.11,0,.03,0,.06,0,.08,0,.02,0,.04,0,.06,0,.03-.02.07-.03.1-.05.16-.15.28-.31.4-.39.3-.78.61-1.16.93-.1.09-.18.19-.22.3,0,.01,0,.02-.01.03,0,.03-.02.06-.02.09,0,.01,0,.03,0,.04,0,.03,0,.06,0,.09,0,.01,0,.03,0,.04,0,0,0,.02,0,.03,0,.01,0,.03,0,.04,0,.03.02.05.03.08H.2s.02.05.04.08c.15.28.32.56.54.77.18.17.29.35.35.53.01.04.02.07.03.11.03.12.03.25.01.39,0,0,0,.02,0,.03,0,.03,0,.06-.02.09-.01.06-.03.13-.05.19-.02.05-.04.11-.06.17-.01.03-.02.06-.03.09-.02.06-.04.11-.05.17,0,.02-.01.04-.02.07,0,.04-.02.09-.02.13,0,.03,0,.06-.01.08,0,.02,0,.04,0,.06-.01.14-.01.28,0,.42.13,1.05.59,2.02.63,3.1.01.36.05.72.04,1.08,0,.02,0,.04,0,.06,0,0,0,0,0,.01,0,.04,0,.08,0,.11,0,.09-.01.18-.03.28,0,.06-.02.13-.03.19,0,.04-.02.08-.03.12s-.02.08-.04.12c-.01.05-.03.09-.05.14-.01.03-.02.06-.03.09-.03.08-.05.16-.07.25-.01.05-.02.11-.03.16-.02.11-.02.22-.02.33,0,.01,0,.03,0,.04,0,.03,0,.06,0,.08,0,.01,0,.03,0,.04.14.8.67,1.36,1.42,1.62.56.19,1.17.25,1.77.29,1.6.11,2.76.84,3.44,2.31.04.08.07.16.11.24.02.04.03.08.05.12.03.08.07.16.1.24h0c.03.08.06.16.09.25h0c.03.08.06.17.08.25h0c.06.18.11.36.16.54.21.78.35,1.59.45,2.41.04.32.05.57.01.77,0,.06-.02.11-.04.16-.11.32-.36.53-.85.81-.53.3-1.03.66-1.5,1.04-.2.16-.33.37-.41.59,0,.03-.02.06-.03.08-.03.1-.05.21-.06.31-.02.15-.02.31-.01.46,0,.01,0,.02,0,.03,0,0,0,.01,0,.02,0,0,0,.01,0,.02,0,0,0,.01.01.02s0,.01.01.02c.01.02.03.03.05.05,0,0,.01,0,.02.01h0c.06.04.14.04.2,0,0,0,0,0,.01-.01.03-.04.06-.07.08-.12,0,0,0-.02.01-.03,0-.02,0-.04.01-.06,0,0,0,0,0,0,0-.05,0-.1,0-.15,0-.04,0-.07,0-.1,0-.02,0-.04,0-.06,0-.02,0-.05,0-.07,0-.02,0-.03,0-.05,0-.03,0-.06.02-.08,0-.03.02-.06.03-.1.08-.25.24-.46.47-.64.26-.2.53-.4.82-.55,0,0,0,0,0,0,.06-.03.13-.07.19-.1,0,0,0,0,0,0,.04-.02.08-.04.12-.06.04-.02.08-.04.13-.07.04-.02.08-.04.12-.06,0,0,0,0,0,0,.04-.02.07-.04.11-.06.38-.22.7-.47.83-.86.01-.04.02-.08.03-.13h0c.17.15.36.3.55.46t0,0c.19.16.38.32.58.48.13.1.25.14.35.13.01,0,.02,0,.03,0,0,0,.02,0,.03,0,.11-.03.19-.13.24-.28,0-.03.02-.06.02-.09,0-.03.01-.06.02-.09,0,0,0,0,0-.01,0-.05,0-.1,0-.15,0,0,0,0,0,0,0-.02,0-.04,0-.05-.12-.86-.24-1.72-.39-2.58-.02-.13-.03-.24,0-.35,0-.01,0-.03,0-.05,0-.02,0-.04.02-.06,0-.01,0-.03.01-.04.04-.11.11-.22.2-.31.32-.32.63-.65.98-.92,1.63-1.3,3.27-2.59,4.92-3.88.24-.19.47-.37.72-.55.12-.09.24-.18.36-.26.61-.44,1.25-.83,1.94-1.15.05-.02.09-.04.13-.06.03-.01.05-.02.08-.03.05-.02.1-.04.14-.05.35-.11.48.02.63.53.27.89.77,1.63,1.41,2.29.04.04.09.09.13.13.04.04.09.08.13.13.04.04.09.08.13.12.13.12.27.24.41.34.09.07.19.14.28.21.07.05.14.1.22.15.07.05.15.1.22.14.07.05.15.09.23.13.17.1.34.19.52.28.04.02.09.04.13.06.09.04.18.08.27.12.04.02.09.04.14.06.18.08.36.15.55.22h0c.14.05.28.1.42.15.05.02.09.03.14.05h0c.17.05.34.1.51.15.17.05.34.09.52.14.13.03.25.07.38.07,0,0,0,0,.01,0h0s.02,0,.03,0c0,0,.02,0,.03,0,.06-.02.13-.06.14-.1.02-.09-.01-.21-.07-.28ZM20.05,5.48s.08.01.12.02c.05.01.1.02.14.04.07.02.13.05.2.08.04.02.09.04.13.07.04.02.09.05.13.08h0s.04.03.06.04c.06.04.12.08.17.13.04.03.08.06.11.09.06.05.11.1.16.15.04.04.07.07.1.11.03.04.07.08.1.11.05.06.09.12.14.18h0c.05.07.09.13.13.2h0s.05.09.08.14c.06.11.11.23.16.35.06.16.09.31.11.47h0c-.69-.76-1.34-1.48-2.04-2.25h0ZM6.18,1.27s.02-.02.03-.02c.01,0,.02-.01.04-.02.02-.01.05-.03.07-.04,0,0,.02-.01.03-.02.06-.04.13-.08.19-.12.07-.04.15-.08.23-.12.1-.04.21-.08.31-.12.69-.24,1.4-.29,2.09-.17.07.01.14.02.2.04.03,0,.07.02.1.02.07.02.13.03.2.05h0c.13.04.27.08.4.14.32.12.64.24.96.35h0c.24.08.48.16.72.24h0c.3.09.61.18.91.27.1.03.2.06.3.08.33.09.65.17.98.26h0c.44.11.87.21,1.31.31,1.28.29,2.39.93,3.31,1.87.12.12.22.25.32.38.03.04.05.1.1.2h0c-1.52.12-3,.61-4.5.11-1.44-.48-2.77-1.14-3.76-2.35-.05-.06-.12-.16-.19-.24-.09-.1-.2-.15-.3,0,0,0,0,0,0,0,0,0,0,0,0,0h0c-.04.1.09.37.2.51.09.11.19.22.28.33h0c.16.17.32.34.5.49h0c.13.12.26.23.4.33.05.03.09.07.14.1.05.04.11.08.17.12,0,0,0,0,.02.01.06.04.11.08.17.11.06.04.12.08.18.11.06.04.12.07.19.11.06.04.13.07.19.1.05.03.11.05.16.08.08.04.15.07.23.1.03.02.07.03.1.04.06.03.12.06.17.14,0,0,0,0,0,0-.23-.04-.46-.08-.68-.13-.24-.06-.47-.14-.71-.22-.11-.04-.22-.09-.33-.13-.63-.2-1.18-.46-1.65-.87-.05-.05-.11-.1-.16-.15-.03-.03-.07-.07-.1-.1-.02-.02-.03-.04-.05-.05-.02-.02-.04-.05-.06-.07-.06-.07-.12-.15-.18-.23h0c-.04-.05-.08-.11-.11-.17h0s-.02-.03-.03-.04c0-.01-.02-.03-.03-.04-.04-.06-.08-.12-.12-.18h0c-.04-.06-.08-.11-.13-.16-.02-.03-.05-.05-.07-.08-.03-.03-.05-.06-.08-.08-.05-.05-.11-.11-.16-.15-.02-.02-.04-.03-.06-.05-.03-.02-.06-.05-.09-.07-.19-.14-.4-.26-.62-.35-.04-.02-.07-.03-.11-.05-.02,0-.05-.02-.08-.03-.05-.02-.1-.04-.15-.05-.06-.02-.12-.04-.18-.05h0s-.08-.02-.11-.03c-.03,0-.07-.01-.1-.02-.03,0-.06-.01-.09-.02-.03,0-.07-.01-.1-.02-.04,0-.09-.01-.13-.02-.09-.01-.17-.02-.26-.03h0s-.09,0-.13,0c-.08,0-.16-.02-.24-.02-.09-.02-.09-.06-.05-.1ZM3.73,2.78c.15-.3.5-.54.97-.7.03,0,.05-.02.08-.03.05-.02.11-.03.16-.05.03,0,.06-.01.08-.02.06-.01.12-.03.18-.04.04,0,.08-.01.11-.02.06,0,.12-.02.18-.03.02,0,.03,0,.05,0,.05,0,.1-.01.15-.02.38-.03.78-.03,1.19.02.03,0,.06,0,.09.01h0c.07.01.14.03.22.05.02,0,.05.01.07.02.04.01.09.03.13.04h0c.07.02.14.05.21.08.03.01.07.03.1.04h0c.1.05.2.1.3.16.07.04.13.08.19.12.09.06.19.13.28.2.01.01.03.02.04.03.03.02.06.05.08.07h0s.05.04.08.07c.05.04.1.09.14.14.04.04.07.08.11.11.05.06.1.12.14.18.01.02.03.04.04.06.06.08.1.16.15.24h0s.02.03.02.05c.01.03.03.06.04.09,0,.01.01.03.02.05,0,.02.01.04.02.06,0,.02,0,.03.01.05,0,.02,0,.03.01.05,0,0,0,.01,0,.02h0c-1.01.11-1.99.14-2.89-.46-.55-.37-1.15-.59-1.81-.63-.06,0-.12,0-.19,0,0,0,0,0,0,0-.06,0-.13,0-.19,0-.1,0-.2,0-.29,0-.05,0-.1,0-.16,0-.05,0-.1,0-.15,0,0,0,0,0,0,0ZM2.98,5.42c0-.06-.02-.12-.02-.19-.02-.2-.03-.41-.01-.61,0-.04,0-.08,0-.11,0-.11.03-.22.05-.34.01-.08.03-.15.05-.23,0-.02.01-.04.02-.06.04-.14.11-.25.2-.33.01-.01.03-.02.04-.04h0s.05-.04.07-.05c.07-.05.14-.08.23-.11.02,0,.04-.01.06-.02,1.03-.29,1.95-.04,2.85.56-.1.04-.17.08-.25.1-.01,0-.02,0-.03,0-.02,0-.04,0-.06.01-.03,0-.06.02-.09.02-.05.01-.1.03-.14.04-.62.2-1.08.59-1.46,1.08-.04.05-.07.1-.11.15-.04.05-.07.1-.1.16-.03.05-.07.11-.1.16-.03.05-.06.11-.09.17-.02.03-.03.06-.05.09-.16.31-.36.59-.58.97,0,0,0,0,0,0-.09-.2-.18-.39-.24-.58-.02-.06-.04-.13-.06-.19h0c-.03-.11-.06-.21-.09-.32-.01-.05-.02-.09-.03-.14,0,0,0-.02,0-.03-.01-.06-.02-.12-.03-.19ZM2.34,10.12s0-.02,0-.03c.02-.17.04-.34.07-.53,0-.05.01-.1.02-.15,0-.02,0-.05,0-.07h0s.02.03.04.04h0s.04.05.06.07c0,.01.02.02.03.04.02.02.03.05.05.07h0s.04.07.06.1c.01.02.02.05.03.07h0s.02.07.03.1c.01.06.01.12,0,.17,0,.03-.01.06-.02.08-.05.15-.19.27-.4.34h0c.01-.1.03-.21.04-.31ZM1.17,13.67s-.02-.02-.03-.04c.03-.05.03-.06.05-.09,0,0,.01-.02.02-.03,0,0,0,0,0,0,.41.12.83.25,1.24.38.06.02.12.06.18.09,0,0,.01,0,.02,0,.02,0,.03.01.05.01h0s.01,0,.02,0c.01,0,.03,0,.04,0,.04,0,.08-.02.12-.03,0,0,0,0,.01,0,.08-.03.11-.12.09-.2,0-.02-.01-.03-.02-.05,0,0,0-.01,0-.02,0-.01-.01-.03-.02-.04-.02-.03-.04-.05-.06-.07,0,0,0,0,0,0-.5-.18-1.01-.33-1.51-.49-.03-.01-.07-.02-.1-.03-.24-.08-.49-.17-.82-.29h0s.03-.03.05-.05c.05-.04.09-.08.13-.12.04-.04.08-.08.12-.11.11-.11.21-.2.31-.29h0c.05-.05.11-.09.16-.14.11-.09.21-.18.32-.27.05-.05.11-.09.16-.14.36-.3.72-.61,1.04-.95.2-.21.33-.39.39-.57.11-.31,0-.6-.28-1.04-.11-.17-.14-.31-.08-.47.02-.05.04-.1.07-.15.27-.41.55-.82.81-1.24.27-.44.52-.88.78-1.33.42-.71.97-1.18,1.66-1.4.33-.11.69-.16,1.08-.15.56,0,1.12-.01,1.67,0h0c.17,0,.35.02.52.03.17.02.35.04.52.07.84.15,1.64.53,2.53.84,0,.01-.02.03-.03.04-.02.02-.03.05-.05.07h0s-.03.05-.04.07c-.01.02-.03.04-.04.06-.06.09-.11.16-.18.22-.27.24-.48.59-.61.97-.14.41-.19.88-.13,1.34,0,.06.02.12.03.18.01.06.02.12.04.18.01.05.02.09.04.13s.03.09.05.13h0c.05.15.12.29.21.43.18.3.39.59.62.86.91,1.06,1.2,2.29,1.11,3.65-.02.34-.09.7.29.9.03.02.06.03.09.03.01,0,.02,0,.03,0,.03,0,.05,0,.08,0,.02,0,.03,0,.05,0,.01,0,.03,0,.04,0,.18-.05.38-.23.57-.48,0,0,0,0,0,0,.11-.15.21-.3.31-.44.17-.25.35-.49.56-.71h0s.05-.05.07-.08c.02-.03.05-.05.08-.08.11-.1.23-.2.35-.29.03-.02.06-.04.1-.07.11-.07.21-.13.33-.17.04-.02.09-.03.13-.05.27-.08.52-.08.74,0,.06.02.11.05.16.08t0,0s.05.03.07.05h0s.05.04.07.06h0s.02.02.03.03c.02.02.04.05.06.07.02.02.03.04.05.06.1.15.18.33.22.55.05.32.05.67-.03.97-.02.08-.05.16-.07.23-.32.95-.92,1.68-1.77,2.18-.07.04-.14.08-.21.11-.11.06-.22.11-.33.16-.05.02-.1.04-.15.06-.06.02-.11.03-.17.04-.05.01-.1.02-.14.02-.29.03-.57-.04-.86-.21-.19-.12-.34-.16-.46-.13-.1.02-.17.1-.21.24,0,.03-.02.06-.03.09,0,.02-.01.05-.01.08,0,0,0,0,0,.01,0,.03,0,.06-.01.09,0,.01,0,.03,0,.04,0,.05-.01.1-.02.15,0,.05-.01.1-.02.15,0,.02,0,.03,0,.05-.05.37-.12.72-.23,1.07-.02.07-.04.14-.07.2-.08.25-.19.49-.31.72-.03.05-.05.1-.08.15s-.06.1-.09.15c-.03.05-.06.1-.09.14-.03.05-.06.09-.1.14-.02.02-.03.04-.05.07-.03.04-.07.09-.1.13-.18.21-.38.39-.61.54-.04.03-.09.06-.14.09-.02.01-.05.03-.07.04-.05.03-.1.05-.15.08-.12.06-.25.11-.39.16-.03,0-.06.02-.08.03-.09.02-.17.05-.26.07-.09.02-.17.05-.26.07-.26.07-.52.14-.78.21-.09.02-.17.04-.26.07,0,0,0,0,0,0-.22.06-.43.11-.65.16-.65.16-1.31.32-1.96.48-1.17.29-2.34.57-3.5.85-.17.04-.34.08-.52.11-.79.12-1.21-.35-1.01-1.13.01-.05.02-.1.04-.14,0-.01,0-.03.01-.04,0-.02.01-.03.02-.05.01-.05.03-.09.05-.13.05-.1.08-.2.12-.3.03-.08.05-.17.07-.25.03-.14.05-.27.06-.41,0,0,0-.02,0-.03,0-.04,0-.08,0-.12,0-.09,0-.19,0-.28,0-.09-.01-.18-.02-.27-.01-.09-.02-.18-.04-.27,0-.03,0-.05-.01-.07,0-.02,0-.05,0-.07,0-.02,0-.03,0-.04-.02-.15-.01-.26.02-.35,0-.02.01-.03.02-.05.08-.17.26-.27.59-.41.06-.02.12-.05.18-.08.11-.05.22-.1.33-.15h0c.08-.04.17-.08.25-.12.42-.2.84-.43,1.26-.64.14-.07.26-.2.37-.32.08-.09.14-.19.18-.29.01-.04.03-.08.03-.13.01-.09.01-.18,0-.27,0-.03-.01-.05-.02-.08h0s-.01-.03-.02-.05c0-.01-.01-.03-.02-.04-.05-.09-.13-.18-.22-.26-.72-.57-1.55-.85-2.45-.88-.04,0-.09,0-.13,0,0,0,0,0,0,0-.03,0-.06,0-.09,0-.02,0-.04,0-.06,0-.05,0-.09.02-.14.03-.26.08-.48.26-.57.54-.04.13-.06.28-.04.46,0,.02,0,.04,0,.06,0,.04,0,.08,0,.12h0s0,0,0-.01c0-.01,0-.03,0-.04,0-.01,0-.03,0-.04-.02-.09-.03-.18-.04-.27,0-.03,0-.07-.01-.1,0-.03,0-.06,0-.09,0-.12,0-.23.03-.33.01-.04.03-.09.04-.13.01-.04.03-.09.04-.13,0-.04.02-.07.03-.11,0-.03.02-.07.03-.1.06-.24.1-.49.09-.72,0-.04,0-.08,0-.12,0-.02,0-.05-.01-.07,0-.04-.02-.08-.03-.12,0-.02-.01-.04-.02-.06-.02-.07-.05-.13-.08-.2-.01-.02-.02-.04-.04-.06-.01-.02-.03-.04-.04-.06,0,0,0,0,0,0-.01-.02-.03-.04-.04-.06-.01-.02-.02-.03-.04-.05,0-.01-.02-.02-.03-.04-.02-.02-.04-.05-.06-.07ZM1.84,16.38s0-.02,0-.03c0-.03,0-.05,0-.08,0-.01,0-.02,0-.04,0-.02.01-.04.02-.06.04-.12.13-.19.23-.22.05-.02.11-.03.18-.03.82-.03,1.56.21,2.23.68,0,0,0,0,0,0-.03-.01-.06-.02-.08-.03-.03-.01-.06-.02-.09-.03-.06-.02-.11-.04-.17-.06-.03,0-.06-.02-.09-.03-.05-.01-.1-.03-.15-.04-.04,0-.07-.02-.11-.03-.03,0-.07-.01-.1-.02-.1-.02-.2-.04-.3-.05-.04,0-.08,0-.12-.01-.06,0-.12,0-.18-.01h0c-.42-.02-.85.03-1.28.14,0-.02,0-.05,0-.07ZM2.22,16.92c.06-.03.12-.06.19-.08.13-.04.27-.07.43-.09.05,0,.09,0,.14,0,.08,0,.16,0,.23,0,.03,0,.07,0,.1,0,0,0,0,0,0,0,.07,0,.14.01.21.02,0,0,0,0,0,0,.05,0,.1.02.15.03.04,0,.08.02.12.03.03,0,.06.01.09.02.02,0,.03,0,.05.01.1.03.19.06.27.1h0s.04.02.05.03c.01,0,.03.02.04.02.03.02.06.03.08.05s.05.04.08.05c.02.02.05.04.07.06h0s.02.02.03.03c-.13.11-.26.22-.4.33-.06.05-.12.09-.19.13-.06.04-.13.08-.19.12h0s-.06.03-.09.05h0c-.06.03-.13.06-.19.08,0,0,0,0,0,0-.11.04-.22.07-.35.09-.07.01-.17-.06-.22-.13-.24-.32-.47-.64-.71-.96,0,0,0,0,0,0ZM1.4,16.72s0-.03,0-.04c0,.01,0,.03,0,.04ZM1.41,16.77s0-.02,0-.02c0,0,0,.02,0,.03,0,0,0,0,0,.01,0,0,0,0,0,0,0,0,0-.01,0-.02ZM1.41,16.8s0,0,0-.01c0,0,0,.01.01.02,0,0,0,0,0,0,.21.21.43.4.64.61.07.07.14.14.2.21h0s.07.08.11.13c.03.04.06.07.08.1,0,.01.01.02.02.03,0,.01.02.03.02.04.05.09.07.16.05.22-.02.09-.12.15-.3.21-.03,0-.06.02-.09.03-.09.03-.18.05-.32.08-.14-.56-.28-1.11-.43-1.67ZM18.58,22.3c-2.3,1.78-4.6,3.57-6.9,5.36-.3.23-.56.5-.84.76-.2.19-.34.39-.41.62-.01.03-.02.07-.03.1,0,.03-.01.06-.02.09,0,.02,0,.04,0,.06,0,.03,0,.07,0,.1,0,0,0,0,0,.01,0,.15,0,.3.04.46.15.71.27,1.43.39,2.15,0,.01,0,.02,0,.03h0c0,.05,0,.11,0,.16h0s0,.06,0,.09c0,.03,0,.06,0,.08-.01,0-.02.01-.03.01t0,0s-.04.02-.08.04c0,0,0,0,0,0-.04-.03-.08-.06-.11-.1-.03-.02-.06-.05-.08-.07-.05-.05-.11-.1-.16-.15-.03-.02-.05-.05-.08-.08-.07-.07-.13-.13-.19-.2-.06-.07-.12-.14-.18-.21-.04-.05-.07-.1-.11-.15-.02-.02-.03-.04-.05-.07-.03-.04-.06-.09-.08-.13,0,0,0,0,0,0-.07-.12-.13-.24-.18-.37-.01-.03-.02-.05-.03-.08-.02-.05-.03-.09-.05-.14-.05-.14-.08-.29-.11-.44-.22-1.34-.55-2.64-1.17-3.86-.16-.32-.34-.6-.54-.85-.03-.04-.06-.07-.09-.1-.03-.04-.07-.08-.1-.11-.04-.04-.08-.08-.12-.12-.14-.14-.29-.26-.45-.38h0c-.06-.04-.13-.09-.19-.13-.03-.02-.07-.04-.1-.06h0c-.06-.03-.12-.07-.18-.1-.09-.05-.19-.09-.28-.13-.1-.04-.2-.08-.3-.11-.07-.02-.14-.04-.2-.07h0c-.1-.03-.19-.05-.29-.08-.03,0-.07-.01-.1-.02-.02,0-.04,0-.06-.01-.06-.01-.12-.02-.18-.03-.18-.03-.36-.05-.55-.07-.45-.04-.89-.09-1.33-.15-.11-.01-.22-.06-.32-.09,0-.03,0-.07,0-.1h0c.94-.24,1.88-.49,2.83-.72,1.55-.36,3.11-.69,4.65-1.06.12-.03.24-.06.35-.1.02,0,.04-.01.06-.02.02,0,.04-.01.06-.02.09-.03.18-.06.27-.1.05-.02.1-.04.15-.06.06-.03.13-.06.19-.09.04-.02.09-.04.13-.07.04-.02.07-.04.1-.06.08-.04.15-.09.22-.13.07-.05.14-.09.21-.14,0,0,0,0,0,0,.04-.03.07-.05.11-.08.02-.01.04-.03.06-.05.03-.03.07-.05.1-.08.02-.02.05-.04.07-.06.03-.03.06-.06.09-.08.37-.36.67-.78.9-1.26.06-.12.11-.24.16-.36.03-.08.06-.17.09-.25,0-.03.02-.06.03-.08.02-.07.04-.14.06-.21,0-.03.01-.06.02-.08.02-.09.04-.17.06-.26,0-.02,0-.04.01-.06,0-.04.02-.09.03-.13s.02-.09.02-.14c0-.01,0-.03,0-.04,0,0,0,0,0-.01,0-.02,0-.04,0-.06,0-.04,0-.08.01-.12,0-.02,0-.04,0-.06,0-.04.01-.08.02-.12h0s.02-.08.03-.11c.02-.07.05-.13.1-.17.01,0,.02-.02.04-.02.05-.01.11,0,.18.01.05.01.09.03.14.04.04.01.08.02.12.03.07.02.14.03.2.03.07,0,.14,0,.21,0,.03,0,.07,0,.1,0,.02,0,.05,0,.07,0,.07,0,.15-.01.22-.02.06,0,.13-.02.19-.03.02,0,.04,0,.07-.01.02,0,.03,0,.05-.01.02,0,.04-.01.07-.02.04-.01.08-.03.13-.05.27-.11.51-.24.74-.39.07-.04.14-.09.2-.14.19-.13.36-.28.52-.44.03-.03.06-.06.09-.09.21-.22.39-.46.54-.73.04-.07.08-.13.11-.2.03-.05.05-.1.08-.16.02-.05.05-.11.07-.16.02-.05.04-.11.07-.17.02-.06.04-.11.06-.17.06-.18.11-.36.14-.55.22-1.07-.33-2.08-1.27-2.23-.19-.03-.37-.03-.54,0-.03,0-.06.01-.08.02-.04,0-.07.02-.11.03-.02,0-.04.01-.06.02-.36.13-.68.37-.96.67-.02.02-.04.04-.06.07-.07.08-.14.17-.21.25-.02.03-.04.06-.07.09h0c-.05.07-.1.14-.15.22-.03.05-.07.1-.1.15-.02.02-.03.05-.05.07-.03.05-.07.09-.1.14,0,0,0,0,0,0-.04.05-.07.09-.11.14h0c-.15.18-.34.33-.52.49h0c-.03-.22-.08-.44-.1-.66-.06-.63-.1-1.26-.16-1.93h0c.11.04.24.08.36.13.11.05.23.09.34.12,0,0,0,0,0,0,.05.01.09.02.14.03.02,0,.05,0,.07.01h0c.08.01.16.03.24.03.09,0,.17,0,.26,0,.07,0,.13,0,.2-.01,0,0,.01,0,.02,0,.08,0,.15-.02.23-.04.08-.02.16-.03.23-.06.04,0,.07-.02.11-.03.04-.01.08-.03.12-.04.04-.01.08-.03.12-.04.6-.19,1.15-.16,1.6.05.05.03.11.06.16.09t0,0s.07.05.11.08h0c.05.04.1.08.15.13h0s.1.1.14.15h0s.03.03.04.05c.03.03.05.07.07.1.01.02.02.03.03.05h0s.02.04.03.05c.02.04.04.07.06.11.02.04.04.08.06.12s.03.08.05.12c0,.02.02.04.02.06.03.08.05.17.07.27h0s.02.09.03.14h0s0,.06.01.09c0,.07.02.14.02.21h0s0,.05,0,.07c0,.17,0,.34-.01.5,0,.03,0,.07-.01.1-.01.09-.02.19-.04.28-.01.08-.03.16-.05.24-.02.07-.03.15-.05.22-.01.04-.02.08-.03.12-.03.12-.07.24-.1.35-.02.08-.05.16-.07.23-.02.05-.03.1-.05.15,0,.02-.02.05-.02.07,0,.03-.02.05-.03.08,0,.02-.02.05-.02.07,0,.02-.02.05-.02.07,0,.02-.02.05-.02.07h0s-.02.05-.02.07c0,.02-.02.05-.02.07-.09.28-.18.56-.26.84-.02.06-.03.12-.05.18-.02.07-.04.14-.05.22-.03.12-.05.24-.07.37,0,.06-.02.13-.02.19,0,.01,0,.03,0,.04,0,.03,0,.06,0,.09,0,.12-.01.23,0,.35,0,.03,0,.06,0,.09.06,1.15.22,2.28.97,3.22.01.02.03.04.04.05h0s.02.03.03.05h0c.02.06.03.11,0,.16-.02.07-.08.13-.17.2ZM19.23,19.79c-.03.08-.05.17-.08.25-.01.05-.03.11-.04.16-.03.11-.05.23-.07.35,0,.01,0,.02,0,.04,0,.04-.01.07-.02.11-.03.23-.04.46-.06.77h0c-.47-.46-.56-1-.69-1.54-.09-.37-.13-.73-.14-1.09,0-.08,0-.16,0-.25,0-.03,0-.05,0-.08,0-.01,0-.02,0-.03,0-.09,0-.17.02-.26,0-.03,0-.06,0-.1,0-.05,0-.09.02-.14,0-.03,0-.06.01-.09,0,0,0,0,0,0,.01-.12.03-.23.06-.35.02-.12.05-.23.08-.35,0-.03.01-.06.02-.09,0-.03.02-.06.02-.09,0-.02.01-.05.02-.07.01-.04.02-.08.03-.12.02-.06.04-.13.06-.19.02-.06.04-.13.06-.19.02-.05.03-.1.05-.15.03-.09.06-.18.09-.27.01-.04.03-.09.04-.13l.04-.14c.06-.2.12-.41.17-.61.02-.09.04-.17.06-.26.03-.14.06-.28.09-.42.02-.12.04-.24.06-.36.16-1.03-.15-1.94-.96-2.63-.07-.06-.15-.12-.22-.17h0s-.06-.04-.09-.06c-.02-.01-.04-.02-.06-.04-.04-.02-.08-.04-.12-.06-.02,0-.04-.02-.06-.03-.02,0-.03-.01-.05-.02-.03-.01-.07-.03-.1-.04-.03-.01-.07-.02-.1-.03-.02,0-.03,0-.05-.01-.03,0-.07-.02-.1-.02-.02,0-.03,0-.05,0-.03,0-.06,0-.09,0-.12-.01-.25-.01-.38,0-.03,0-.05,0-.08,0,0,0-.02,0-.02,0-.02,0-.05,0-.07.01-.07.01-.15.03-.22.06-.36.11-.73.2-1.09.27-.64.11-1.23-.08-1.65-.53-.14-.15-.28-.31-.42-.46h0c-.07-.08-.14-.16-.21-.24h0c-.21-.24-.4-.48-.59-.73-.06-.08-.12-.17-.18-.25h0c-.06-.09-.12-.17-.17-.26-.06-.1-.12-.21-.16-.31,0-.02-.02-.04-.03-.06-.02-.04-.03-.09-.04-.13-.02-.06-.03-.12-.04-.17,0,0,0,0,0,0-.01-.07-.03-.14-.03-.21-.01-.1-.01-.19,0-.29,0-.03,0-.06,0-.09,0-.04,0-.07.01-.11.01-.08.03-.17.05-.25.01-.06.03-.11.05-.17.13-.38.35-.73.67-1.03.21-.2.42-.37.67-.46.17-.06.37-.08.6-.04,1.63.28,3.25.11,4.85-.18.57-.1.96.04,1.32.53.17.24.36.48.56.7.06.08.13.15.2.23.27.3.55.59.82.88.42.44.7.92.87,1.44,0,.03.02.06.03.08.03.09.05.19.08.28,0,.04.02.09.03.13.01.07.02.14.04.21,0,.04.01.09.02.13,0,.07.02.13.02.2,0,.07.01.13.02.2h0c0,.11.01.21.01.32h0s0,.07,0,.11c0,.25,0,.5-.03.75,0,0,0,.01,0,.02,0,.09-.01.17-.02.26,0,.05-.01.1-.02.16-.01.13-.03.25-.05.38-.03.17-.06.33-.09.5-.02.09-.04.19-.06.28-.02.07-.03.14-.05.2-.03.14-.07.27-.11.41-.04.13-.08.27-.13.4-.19.56-.42,1.1-.68,1.64-.28.57-.61,1.12-.93,1.67-.08.14-.17.28-.25.42,0,0,0,0,0,0-.03.06-.06.11-.1.17-.06.11-.13.22-.19.33,0,0,0,0,0,0-.06.11-.12.22-.18.34-.16.31-.31.63-.43.96-.01.04-.03.08-.04.12Z"/>
    </g>
  </g>
</svg>