<?xml version="1.0" encoding="UTF-8"?>
<svg id="Layer_2" data-name="Layer 2" xmlns="http://www.w3.org/2000/svg" viewBox="0 0 36 36">
  <defs>
    <style>
      .cls-1 {
        fill: none;
      }

      .cls-1, .cls-2, .cls-3 {
        stroke-width: 0px;
      }

      .cls-3 {
        fill: #fff;
      }
    </style>
  </defs>
  <g id="Layer_1-2" data-name="Layer 1">
    <g>
      <path class="cls-3" d="M30.01,27.37s-.02-.02-.03-.03h0s-.04-.02-.06-.03h0s-.03,0-.04-.01c-.04-.01-.08-.02-.12-.03-.76-.23-1.55-.39-2.29-.69-1.97-.79-3.48-2.05-4.09-4.19,0-.03-.01-.05-.02-.07h0c-.02-.07-.05-.14-.08-.19-.01-.02-.02-.04-.03-.05-.01-.02-.02-.03-.03-.05-.01-.02-.02-.03-.04-.04-.01-.01-.03-.03-.04-.04-.12-.11-.28-.16-.47-.14-.03,0-.06,0-.09.01-.06.01-.13.03-.21.05-.02,0-.04.01-.06.02-.22.08-.43.17-.65.25,0,0-.01,0-.02,0-.03-.03-.05-.04-.07-.06-.01,0-.03-.01-.04-.02,0,0,0,0,0,0,0-.03,0-.07.01-.1.03-.32.04-.66.09-.98,0-.03,0-.06.02-.1,0,0,0,0,0,0,.01-.07.03-.14.05-.21.01-.05.03-.11.05-.16.23-.67.54-1.33.9-1.95.14-.25.29-.49.43-.74.09-.16.19-.33.28-.49.05-.08.09-.17.14-.25.09-.17.18-.33.27-.5.04-.08.09-.17.13-.25.04-.08.08-.17.12-.25h0c.06-.13.12-.26.18-.39.06-.13.11-.26.17-.39h0c.05-.13.1-.27.15-.4.02-.05.03-.09.05-.14.03-.09.06-.18.09-.27.38-1.24.62-2.49.49-3.79-.06-.6-.15-1.19-.22-1.79-.05-.42-.14-.82-.27-1.19-.02-.05-.04-.1-.06-.16-.02-.06-.05-.12-.07-.17-.01-.03-.02-.05-.03-.08-.08-.17-.17-.34-.27-.49h0c-.11-.18-.24-.34-.37-.49-.02-.02-.04-.04-.06-.06h0s-.06-.07-.1-.1c-.1-.1-.2-.19-.3-.27-.08-.06-.16-.12-.24-.18-.04-.03-.08-.05-.13-.08-.04-.03-.09-.05-.13-.07-.12-.06-.24-.12-.36-.16-.18-.07-.38-.12-.57-.16-.11-.02-.23-.11-.3-.21-.14-.19-.29-.37-.45-.54-.05-.06-.11-.11-.16-.17-.03-.03-.06-.07-.1-.1-.1-.1-.2-.19-.3-.28h0c-.12-.11-.24-.21-.37-.31t0,0c-.3-.23-.61-.43-.94-.61h0c-.1-.06-.21-.11-.32-.16-.04-.02-.07-.03-.11-.05-.05-.02-.1-.04-.15-.07-.25-.11-.5-.2-.76-.29h0c-.05-.02-.1-.03-.16-.05-.04-.01-.08-.02-.12-.03-.12-.03-.24-.07-.36-.09-1.65-.4-3.3-.77-4.88-1.42-.44-.18-.93-.28-1.4-.32-.24-.02-.48-.03-.71-.02-.05,0-.1,0-.16,0-.04,0-.07,0-.11,0-.05,0-.1,0-.15.01-.21.02-.42.06-.62.11-.06.02-.12.03-.17.05-.03,0-.06.02-.08.03-.4.14-.78.35-1.12.66-.33.3-.68.47-1.09.61-.4.14-.76.33-1.07.59-.03.03-.07.06-.1.09-.17.16-.32.33-.44.54-.02.04-.05.08-.07.12,0,0,0,0,0,0-.03.05-.07.1-.11.15-.01.01-.02.02-.03.03-.04.03-.08.06-.11.09-.6.39-.96.95-1.16,1.56-.05.16-.09.33-.12.5,0,.05-.02.09-.02.14,0,0,0,.02,0,.02-.07.5-.05,1.02.02,1.49.01.07.02.13.03.2.01.07.03.13.04.2.01.06.03.13.05.19h0c.02.06.03.12.05.18,0,0,0,0,0,0s0,0,0,0c0,0,0,.02.01.03,0,0,.01.02.02.02h0s.01.01.02.02c.02.02.04.03.07.05,0,0,0,0,0,0,0,0,0,0,.01,0,.1.04.21-.02.23-.13,0-.05,0-.1,0-.15-.07-.6-.2-1.21-.21-1.81,0-.05,0-.11,0-.16,0,0,0,0,0,0,0-.05,0-.09.01-.14,0-.07.02-.15.04-.22,0-.02.01-.05.02-.07.02-.06.03-.13.05-.19.12-.37.33-.71.62-1.05h0c.01.14.02.21.02.28,0,.08-.01.15-.02.23,0,0,0,0,0,.01-.03.75.1,1.48.37,2.18,0,.02.02.04.02.07,0,.02.01.04.02.07.01.04.02.09.03.13.03.14.03.27.02.4,0,.06-.02.12-.03.17,0,.02-.01.04-.02.06-.05.16-.14.31-.25.46-.26.33-.44.69-.57,1.07-.03.08-.05.16-.07.24-.02.08-.04.16-.06.25,0,.03-.01.06-.01.08,0,.03-.01.06-.01.09,0,.05-.01.1-.02.16,0,0,0,.01,0,.02,0,.05,0,.1-.01.15,0,0,0,0,0,.01-.01.15-.01.31,0,.47,0,.04,0,.07,0,.11,0,.03,0,.06,0,.08,0,.02,0,.04,0,.06,0,.03-.02.07-.03.1-.05.16-.15.28-.31.4-.39.3-.78.61-1.16.93-.1.09-.18.19-.22.3,0,.01,0,.02-.01.03,0,.03-.02.06-.02.09,0,.01,0,.03,0,.04,0,.03,0,.06,0,.09,0,.01,0,.03,0,.04,0,0,0,.02,0,.03,0,.01,0,.03,0,.04,0,.03.02.05.03.08h0s.02.05.04.08c.15.28.32.56.54.77.18.17.29.35.35.53.01.04.02.07.03.11.03.12.03.25.01.39,0,0,0,.02,0,.03,0,.03,0,.06-.02.09-.01.06-.03.13-.05.19-.02.05-.04.11-.06.17-.01.03-.02.06-.03.09-.02.06-.04.11-.05.17,0,.02-.01.04-.02.07,0,.04-.02.09-.02.13,0,.03,0,.06-.01.08,0,.02,0,.04,0,.06-.01.14-.01.28,0,.42.13,1.05.59,2.02.63,3.1.01.36.05.72.04,1.08,0,.02,0,.04,0,.06,0,0,0,0,0,.01,0,.04,0,.08,0,.11,0,.09-.01.18-.03.28,0,.06-.02.13-.03.19,0,.04-.02.08-.03.12s-.02.08-.04.12c-.01.05-.03.09-.05.14-.01.03-.02.06-.03.09-.03.08-.05.16-.07.25-.01.05-.02.11-.03.16-.02.11-.02.22-.02.33,0,.01,0,.03,0,.04,0,.03,0,.06,0,.08,0,.01,0,.03,0,.04.14.8.67,1.36,1.42,1.62.56.19,1.17.25,1.77.29,1.6.11,2.76.84,3.44,2.31.04.08.07.16.11.24.02.04.03.08.05.12.03.08.07.16.1.24h0c.03.08.06.16.09.25h0c.03.08.06.17.08.25h0c.06.18.11.36.16.54.22.78.35,1.59.45,2.4.04.32.05.57.01.77,0,.06-.02.11-.04.16-.11.32-.36.53-.85.81-.53.3-1.03.66-1.5,1.04-.2.16-.33.37-.41.59,0,.03-.02.06-.03.08-.03.1-.05.21-.06.31-.02.15-.02.31-.01.46,0,.01,0,.02,0,.03,0,0,0,.01,0,.02,0,0,0,.01,0,.02,0,0,0,.01.01.02s0,.01.01.02c.02.02.04.04.06.06h0c.06.04.14.04.2,0,0,0,0,0,.01-.01.03-.04.06-.07.08-.12,0,0,0-.02.01-.03,0-.02,0-.04.01-.06,0,0,0,0,0,0,0-.05,0-.1,0-.15,0-.03,0-.07,0-.1,0-.02,0-.04,0-.06,0-.02,0-.05,0-.07,0-.02,0-.03,0-.05,0-.03,0-.06.02-.08,0-.03.02-.06.03-.1.08-.25.24-.46.47-.64.26-.2.53-.4.82-.55,0,0,0,0,0,0,.06-.03.13-.07.19-.1,0,0,0,0,0,0,.04-.02.08-.04.12-.06.04-.02.08-.04.13-.07.04-.02.08-.04.12-.06,0,0,0,0,0,0,.04-.02.07-.04.11-.06.38-.22.7-.47.83-.86.01-.04.02-.08.03-.13h0c.17.14.36.3.55.46t0,0c.19.16.38.32.58.48.13.1.25.14.35.13.01,0,.02,0,.03,0,0,0,.02,0,.03,0,.11-.03.19-.13.24-.28,0-.03.02-.06.02-.09,0-.03.01-.06.01-.09,0,0,0,0,0-.01,0-.05,0-.1,0-.15,0,0,0,0,0,0,0-.02,0-.04,0-.05-.12-.86-.24-1.72-.39-2.58-.02-.13-.03-.24,0-.35,0-.01,0-.03,0-.05,0-.02,0-.04.02-.06,0-.01,0-.03.01-.04.04-.11.11-.22.2-.31.32-.32.63-.65.98-.92,1.63-1.3,3.27-2.59,4.92-3.88.24-.19.47-.37.72-.55.12-.09.24-.18.36-.26.61-.44,1.25-.83,1.94-1.15.05-.02.09-.04.13-.06.03-.01.05-.02.08-.03.05-.02.1-.04.14-.05.35-.11.48.02.63.53.27.89.77,1.63,1.41,2.29.04.04.09.09.13.13.04.04.09.08.13.13.04.04.09.08.13.12.13.12.27.24.41.34.09.07.19.14.28.21.07.05.14.1.22.15.07.05.15.1.22.14.07.05.15.09.23.13.17.1.34.19.52.28.04.02.09.04.13.06.09.04.18.08.27.12.04.02.09.04.14.06.18.08.36.15.55.22h0c.14.05.28.1.42.15.05.02.09.03.14.05h0c.17.05.34.1.51.15.17.05.34.09.52.14.13.03.25.07.38.07,0,0,0,0,.01,0h0s.02,0,.03,0c0,0,.02,0,.03,0,.06-.02.13-.06.14-.1h0c.02-.09-.01-.21-.07-.28ZM22.7,6s.09.04.13.07c.04.02.09.05.13.08h0s.04.03.06.04c.06.04.12.08.17.13.04.03.08.06.11.09.06.05.11.1.16.15.04.04.07.07.1.11.03.04.07.08.1.11.05.06.09.12.14.18h0c.05.07.09.13.13.2h0s.05.09.08.14c.06.11.11.23.16.35.06.16.09.31.11.47h0c-.69-.76-1.34-1.48-2.04-2.25h0s.08.01.12.02c.05.01.1.02.14.04.07.02.13.05.2.08ZM8.37,1.65s.02-.01.04-.02c.01,0,.02-.01.04-.02.02-.01.05-.03.07-.04,0,0,.02-.01.03-.02.06-.04.13-.08.19-.12.07-.04.15-.08.23-.12.1-.04.21-.08.31-.12.69-.24,1.4-.29,2.09-.17.07.01.14.02.2.04.03,0,.07.02.1.02.07.02.13.03.2.05h0c.13.04.27.08.4.14.32.12.64.24.95.35h0c.24.08.48.16.72.24h0c.3.09.61.18.91.27.1.03.2.06.3.08.33.09.65.17.98.26h0c.44.11.87.21,1.31.31,1.28.29,2.39.93,3.31,1.87.12.12.22.25.32.38.03.04.05.1.1.2h0c-1.52.12-3,.61-4.5.11-1.44-.48-2.77-1.14-3.76-2.35-.06-.07-.12-.17-.19-.24-.08-.07-.17-.09-.3,0,0,0,0,0,0,0,0,0,0,0,0,0h0c-.02.06.09.38.2.51.09.11.19.22.28.33h0c.16.17.32.33.5.49h0c.13.11.26.22.4.33.05.03.09.07.14.1.05.04.11.08.17.12,0,0,0,0,.02.01.06.04.11.08.17.11.06.04.12.08.18.11.06.04.12.07.19.11.06.04.13.07.19.1.05.03.11.05.16.08.08.04.15.07.23.1.03.01.07.03.1.04.06.03.12.06.17.15h0c-.23-.04-.46-.08-.68-.13-.24-.06-.47-.14-.71-.22-.11-.04-.22-.09-.33-.13-.63-.2-1.18-.46-1.65-.86-.05-.05-.11-.1-.16-.15-.03-.03-.07-.07-.1-.1-.02-.02-.03-.04-.05-.05-.02-.02-.04-.05-.06-.07-.06-.07-.12-.15-.18-.23h0c-.04-.05-.08-.11-.11-.17h0s-.02-.03-.03-.04-.02-.03-.03-.04c-.04-.06-.08-.12-.12-.18h0c-.04-.06-.08-.11-.13-.16-.02-.03-.05-.05-.07-.08-.03-.03-.05-.06-.08-.08-.05-.05-.11-.11-.16-.15-.02-.02-.04-.03-.06-.05-.03-.02-.06-.05-.09-.07-.19-.14-.4-.26-.62-.35-.04-.02-.07-.03-.11-.05-.02,0-.05-.02-.08-.03-.05-.02-.1-.04-.15-.05-.06-.02-.12-.04-.18-.05h0s-.08-.02-.11-.03c-.03,0-.07-.01-.1-.02-.03,0-.06-.01-.09-.02-.03,0-.07-.01-.1-.02-.04,0-.09-.01-.13-.02-.09-.01-.17-.02-.26-.03h0s-.09,0-.13,0c-.08,0-.16-.02-.24-.02-.09-.02-.09-.06-.05-.1,0,0,0,0,0,0ZM6.9,2.46s.05-.02.08-.03c.05-.02.11-.03.16-.05.03,0,.06-.01.08-.02.06-.01.12-.03.18-.04.04,0,.08-.01.11-.02.06,0,.12-.02.18-.03.02,0,.03,0,.05,0,.05,0,.1-.01.15-.02.38-.03.78-.03,1.19.02.03,0,.06,0,.09.01h0c.07.01.14.03.22.05.02,0,.05.01.07.02.04.01.09.03.13.04h0c.07.02.14.05.21.08.03.01.07.03.1.04h0c.1.05.2.1.3.16.07.04.13.08.19.12.09.06.19.13.28.2.01.01.03.02.04.03.03.02.06.05.08.07h0s.05.04.08.07c.05.04.1.09.14.14.04.04.07.08.11.11.05.06.1.12.14.18.01.02.03.04.04.06.06.08.11.16.15.24h0s.02.03.02.05c.01.03.03.06.04.09,0,.01.01.03.02.05,0,.02.01.04.02.06,0,.02,0,.03.01.05,0,.02,0,.03.01.05,0,0,0,.01,0,.02h0c-1.01.11-1.99.14-2.89-.46-.55-.37-1.15-.59-1.81-.63-.06,0-.12,0-.19,0,0,0,0,0,0,0-.06,0-.13,0-.19,0-.1,0-.2,0-.29,0-.05,0-.1,0-.16,0s-.1,0-.15,0c.15-.3.5-.54.97-.7ZM5.17,5.8c0-.06-.02-.12-.02-.19-.02-.2-.03-.41-.01-.61,0-.04,0-.08,0-.11,0-.11.03-.22.05-.34.01-.08.03-.15.05-.23,0-.02.01-.04.02-.06.04-.14.11-.25.2-.33.01-.01.03-.02.04-.04h0s.05-.04.07-.05c.07-.05.14-.08.23-.11.02,0,.04-.01.06-.02,1.03-.29,1.95-.04,2.86.56h0s0,0,0,0c-.1.04-.17.08-.25.1-.01,0-.02,0-.03,0-.02,0-.04,0-.06.01-.03,0-.06.02-.09.02-.05.01-.1.03-.14.04-.62.2-1.08.59-1.46,1.08-.04.05-.07.1-.11.15-.04.05-.07.1-.1.16-.03.05-.07.11-.1.16-.03.05-.06.11-.09.17-.02.03-.03.06-.05.09-.16.31-.36.59-.58.97-.09-.2-.18-.39-.25-.58-.02-.06-.04-.13-.06-.19h0c-.03-.11-.06-.21-.09-.32-.01-.05-.02-.09-.03-.14,0,0,0-.02,0-.03-.01-.06-.02-.12-.03-.19ZM4.54,10.47c.02-.17.04-.34.07-.53,0-.05.01-.1.02-.15,0-.02,0-.05,0-.07h0s.02.02.04.04h0s.04.05.06.07c0,.01.02.02.03.04.02.02.03.05.05.07h0s.04.07.06.1c.01.02.02.05.03.07h0s.02.07.03.1c.01.06.01.12,0,.17,0,.03-.01.06-.02.08-.05.15-.19.27-.4.34.01-.11.03-.21.04-.31,0,0,0-.02,0-.03ZM3.59,17.03s0-.03,0-.04c0,0,0-.01,0-.02-.01-.09-.03-.18-.04-.27,0-.04-.01-.08-.02-.12,0-.03,0-.06,0-.09,0-.12,0-.23.03-.33.01-.04.03-.09.04-.13.01-.04.03-.09.04-.13,0-.04.02-.07.03-.11,0-.03.02-.07.03-.1.06-.24.1-.49.09-.72,0-.04,0-.08,0-.12,0-.02,0-.05-.01-.07,0-.04-.02-.08-.03-.12,0-.02-.01-.04-.02-.06-.02-.07-.05-.13-.08-.2-.01-.02-.02-.04-.04-.06-.01-.02-.03-.04-.04-.06,0,0,0,0,0,0-.01-.02-.03-.04-.04-.06-.01-.02-.02-.03-.04-.05,0-.01-.02-.02-.03-.04-.02-.02-.04-.05-.06-.07-.01-.01-.02-.02-.03-.04,0,0-.01-.01-.02-.02.02-.02.05-.05.07-.07,0-.01.02-.02.03-.03h0c.41.12.83.25,1.24.37.06.02.12.06.18.09,0,0,.01,0,.02,0,.02,0,.03,0,.05.01h0s.01,0,.02,0c.01,0,.03,0,.04,0,.05,0,.09-.02.14-.03.08-.03.11-.12.09-.2,0-.02-.01-.03-.02-.05,0,0,0-.01,0-.02,0-.01-.01-.03-.02-.04-.02-.03-.04-.05-.06-.07,0,0,0,0,0,0-.5-.18-1.01-.33-1.51-.49-.03-.01-.07-.02-.1-.03-.24-.08-.49-.17-.82-.29.02-.01.03-.03.05-.04.05-.04.09-.08.13-.12.04-.04.08-.08.12-.11.11-.11.21-.2.31-.29h0c.05-.05.11-.09.16-.14.11-.09.21-.18.32-.27.05-.05.11-.09.16-.14.36-.3.72-.61,1.04-.95.2-.21.33-.39.39-.57.11-.31,0-.6-.28-1.04-.11-.17-.14-.31-.09-.46.02-.05.04-.1.07-.15.27-.41.55-.82.81-1.24.27-.44.52-.88.78-1.33.42-.71.97-1.18,1.66-1.4.33-.11.69-.16,1.08-.15.56,0,1.12-.01,1.67,0h0c.17,0,.35.02.52.03.17.02.35.04.52.07.84.15,1.64.53,2.53.84,0,0,0,0,0,0,0,.01-.02.03-.03.04-.02.02-.03.05-.05.07h0s-.03.05-.04.07c-.01.02-.03.04-.04.06-.06.09-.11.16-.18.22-.27.24-.48.59-.61.97-.14.41-.19.88-.13,1.34,0,.06.02.12.03.18.01.06.02.12.04.18.01.05.02.09.04.13s.03.09.05.13h0c.06.15.12.29.21.43.18.3.39.59.62.86.91,1.06,1.2,2.29,1.11,3.65-.02.34-.09.7.29.9.03.02.06.03.09.03.01,0,.02,0,.03,0,.03,0,.05,0,.08,0,.02,0,.03,0,.05,0,.01,0,.03,0,.04,0,.18-.05.38-.23.57-.48,0,0,0,0,0,0,.11-.15.21-.3.31-.44.17-.25.35-.49.56-.71h0s.05-.05.07-.08c.03-.03.05-.05.08-.08.11-.1.23-.2.35-.29.03-.02.06-.04.1-.07.11-.07.21-.13.33-.17.04-.02.09-.03.13-.05.27-.08.52-.08.74,0,.06.02.11.05.16.08t0,0s.05.03.07.05h0s.05.04.07.06h0s.02.02.03.03c.02.02.04.05.06.07.02.02.03.04.05.06.11.15.18.33.22.54.05.32.05.67-.03.97-.02.08-.05.16-.07.23-.32.95-.92,1.68-1.77,2.18-.07.04-.14.08-.21.11-.11.06-.22.11-.33.16-.05.02-.1.04-.15.06-.06.02-.11.03-.17.04-.05.01-.1.02-.14.02-.29.03-.57-.04-.86-.21-.19-.12-.34-.16-.46-.13-.1.02-.17.1-.21.24,0,.03-.02.06-.03.09,0,.02-.01.05-.01.08,0,0,0,0,0,.01,0,.03,0,.06-.01.09,0,.01,0,.03,0,.05,0,.05,0,.1-.02.15,0,.05-.01.1-.02.15,0,.02,0,.03,0,.05-.05.37-.12.72-.23,1.07-.02.07-.04.14-.07.2-.08.25-.19.49-.31.72-.03.05-.05.1-.08.15s-.06.1-.09.15c-.03.05-.06.1-.09.14-.03.05-.06.09-.1.14-.02.02-.03.04-.05.07-.03.04-.07.09-.1.13-.18.21-.38.39-.61.54-.04.03-.09.06-.14.09-.02.01-.05.03-.07.04-.05.03-.1.05-.15.08-.12.06-.25.11-.39.16-.03,0-.05.02-.08.02-.09.02-.17.05-.26.07-.09.02-.17.05-.26.07-.26.07-.52.14-.78.21-.09.02-.17.04-.26.07,0,0,0,0,0,0-.22.06-.43.11-.65.16-.65.16-1.31.32-1.96.48-1.17.29-2.34.57-3.5.85-.17.04-.34.08-.52.11-.79.12-1.21-.35-1.01-1.13.01-.05.02-.09.04-.14,0-.01,0-.03.01-.04,0-.02.01-.03.02-.05.01-.05.03-.09.05-.13.05-.1.08-.2.12-.3.03-.08.05-.17.07-.25.03-.14.05-.27.06-.41,0,0,0-.02,0-.03,0-.04,0-.08,0-.12,0-.09,0-.19,0-.28,0-.09-.01-.18-.02-.27-.01-.09-.02-.18-.04-.27,0-.03,0-.05-.01-.07,0-.02,0-.05,0-.07,0-.02,0-.03,0-.04-.02-.15-.01-.26.02-.35,0-.02.01-.03.02-.05.08-.17.26-.27.59-.41.06-.02.12-.05.18-.08.11-.05.22-.1.33-.15h0c.08-.04.17-.08.25-.12.42-.2.84-.43,1.26-.64.14-.07.26-.2.37-.32.08-.09.14-.19.18-.29.01-.04.03-.08.03-.13.01-.09.01-.18,0-.27,0-.03-.01-.05-.02-.08h0s-.01-.03-.02-.05c0-.01-.01-.03-.02-.04-.05-.09-.13-.18-.22-.26-.72-.57-1.55-.85-2.45-.88-.04,0-.09,0-.13,0,0,0,0,0,0,0-.03,0-.06,0-.09,0-.02,0-.04,0-.06,0-.05,0-.09.02-.14.03-.26.08-.48.26-.57.54-.04.13-.06.28-.04.46,0,.02,0,.04,0,.06,0,.04,0,.08,0,.12,0,0,0,0,0,0,0,0,0,0,0-.01ZM3.62,17.19c.21.21.43.4.64.61.07.07.14.14.2.21h0s.07.08.11.13c.03.04.06.07.08.1,0,.01.01.02.02.03,0,.01.02.03.02.04.05.09.07.16.05.22-.02.09-.12.15-.3.21-.03,0-.06.02-.09.03-.09.03-.18.05-.32.08-.14-.56-.28-1.12-.42-1.67,0,0,0,0,0,0ZM5.98,18.17h0s-.06.03-.09.05h0c-.06.03-.13.06-.19.08,0,0,0,0,0,0-.11.04-.22.07-.35.09-.07.01-.17-.06-.22-.13-.24-.32-.47-.64-.71-.96.06-.03.12-.06.19-.08.13-.04.27-.07.43-.09.05,0,.09,0,.14,0,.08,0,.16,0,.23,0,.03,0,.07,0,.1,0,0,0,0,0,0,0,.07,0,.14.01.21.02,0,0,0,0,0,0,.05,0,.1.02.15.03.04,0,.08.02.12.03.03,0,.06.01.09.02.02,0,.03,0,.05.01.1.03.19.06.27.1h0s.04.02.05.03c.01,0,.03.02.04.02.03.02.06.03.08.05s.05.04.08.05c.02.02.05.04.07.06h0s.02.02.03.03h0c-.13.11-.26.22-.4.33-.06.05-.12.09-.19.13-.06.04-.13.08-.19.12ZM6.72,16.99s0,0,0,0c-.03-.01-.05-.02-.08-.03-.03-.01-.06-.02-.09-.03-.06-.02-.11-.04-.17-.06-.03,0-.06-.02-.09-.03-.05-.01-.1-.03-.15-.04-.04,0-.07-.02-.11-.03-.03,0-.07-.01-.1-.02-.1-.02-.2-.04-.3-.05-.04,0-.08,0-.12-.01-.06,0-.12,0-.18-.01h0c-.42-.02-.85.03-1.28.14,0,0,0-.01,0-.02,0-.02,0-.03,0-.05,0-.01,0-.02,0-.03,0-.03,0-.05,0-.08,0-.01,0-.02,0-.04,0-.02.01-.04.02-.06.04-.12.13-.19.23-.22.05-.02.11-.03.18-.03.82-.03,1.56.21,2.24.68ZM20.95,22.48c-.02.07-.08.13-.17.2-2.3,1.78-4.6,3.57-6.9,5.36-.3.23-.56.5-.84.76-.2.19-.34.39-.41.62-.01.03-.02.07-.03.1,0,.03-.01.06-.02.09,0,.02,0,.04,0,.06,0,.03,0,.07,0,.1,0,0,0,0,0,.01,0,.15,0,.3.04.46.15.71.27,1.43.39,2.15,0,.01,0,.02,0,.03h0c0,.05,0,.11,0,.16h0s0,.06,0,.09c0,.03,0,.06,0,.09-.01,0-.02,0-.03.01t0,0s-.06.02-.09.03c-.04-.03-.08-.06-.11-.1-.03-.02-.06-.05-.08-.07-.05-.05-.11-.1-.16-.15-.03-.02-.05-.05-.08-.08-.07-.07-.13-.13-.19-.2-.06-.07-.12-.14-.18-.21-.04-.05-.07-.1-.11-.15-.02-.02-.03-.04-.05-.07-.03-.04-.06-.09-.08-.13,0,0,0,0,0,0-.07-.12-.13-.24-.18-.37-.01-.03-.02-.05-.03-.08-.02-.05-.03-.09-.05-.14-.05-.14-.08-.29-.11-.44-.22-1.34-.55-2.64-1.17-3.86-.16-.32-.34-.6-.54-.85-.03-.04-.06-.07-.09-.1-.03-.04-.07-.08-.1-.11-.04-.04-.08-.08-.12-.12-.14-.14-.29-.26-.45-.38h0c-.06-.05-.13-.09-.19-.13-.03-.02-.07-.04-.1-.06h0c-.06-.04-.12-.07-.18-.1-.09-.05-.19-.09-.28-.13-.1-.04-.2-.08-.3-.11-.07-.02-.14-.04-.2-.07h0c-.1-.03-.19-.05-.29-.08-.03,0-.07-.01-.1-.02-.02,0-.04,0-.06-.01-.06-.01-.12-.02-.18-.03-.18-.03-.36-.05-.55-.07-.45-.04-.89-.09-1.33-.15-.11-.01-.22-.06-.32-.09,0-.03,0-.07,0-.1h0c.94-.24,1.88-.49,2.83-.72,1.55-.36,3.11-.69,4.65-1.06.12-.03.24-.06.35-.1.02,0,.04-.01.06-.02.02,0,.04-.01.06-.02.09-.03.18-.06.27-.1.05-.02.1-.04.15-.06.06-.03.13-.06.19-.09.04-.02.09-.04.13-.07.04-.02.07-.04.1-.06.08-.04.15-.09.22-.13.07-.05.14-.09.21-.14,0,0,0,0,0,0,.04-.03.07-.05.11-.08.02-.01.04-.03.06-.05.03-.03.07-.05.1-.08.02-.02.05-.04.07-.06.03-.03.06-.06.09-.08.37-.36.67-.78.9-1.26.06-.12.11-.24.16-.36.03-.08.06-.17.09-.25,0-.03.02-.06.03-.08.02-.07.04-.14.06-.21,0-.03.01-.06.02-.08.02-.09.04-.17.06-.26,0-.02,0-.04.01-.06,0-.04.02-.09.03-.13s.02-.09.03-.14c0-.01,0-.03,0-.04,0,0,0,0,0-.01,0-.02,0-.04,0-.06,0-.04,0-.08.01-.12,0-.02,0-.04,0-.06,0-.04.01-.08.02-.12h0s.02-.08.03-.11c.02-.07.05-.13.1-.17.01,0,.02-.02.04-.02.05-.01.11,0,.18.01.05.01.09.02.14.04.04.01.08.02.12.03.07.02.14.03.2.03.07,0,.14,0,.21,0,.03,0,.07,0,.1,0,.02,0,.05,0,.07,0,.07,0,.15-.01.22-.02.06,0,.13-.02.19-.03.02,0,.04,0,.07-.01.02,0,.03,0,.05-.01.02,0,.04-.01.07-.02.04-.01.08-.03.13-.05.27-.11.51-.24.74-.39.07-.04.14-.09.2-.14.19-.13.36-.28.52-.44.03-.03.06-.06.09-.09.21-.22.39-.46.54-.73.04-.07.08-.13.11-.2.03-.05.05-.1.08-.16.02-.05.05-.11.07-.16.02-.05.04-.11.07-.17.02-.06.04-.11.06-.17.06-.18.11-.36.15-.55.22-1.07-.33-2.08-1.27-2.23-.19-.03-.37-.03-.54,0-.03,0-.06.01-.08.02-.04,0-.07.02-.11.03-.02,0-.04.01-.06.02-.36.13-.68.37-.96.67-.02.02-.04.04-.06.07-.07.08-.14.17-.21.25-.02.03-.04.06-.07.09h0c-.05.07-.1.14-.15.22-.03.05-.07.1-.1.15-.02.02-.03.05-.05.07-.03.05-.07.09-.1.14,0,0,0,0,0,0-.04.05-.07.09-.11.14h0c-.15.18-.34.33-.52.49-.03-.22-.08-.44-.1-.66-.06-.63-.1-1.26-.16-1.93h0c.11.04.24.07.36.13.11.05.23.09.34.12,0,0,0,0,0,0,.05.01.09.02.14.03.02,0,.05,0,.07.01h0c.08.01.16.02.24.03.09,0,.17,0,.26,0,.07,0,.13,0,.2-.01,0,0,.01,0,.02,0,.08,0,.15-.02.23-.04.08-.02.16-.03.23-.06.04,0,.07-.02.11-.03.04-.01.08-.03.12-.04.04-.01.08-.03.12-.04.6-.19,1.15-.16,1.6.05.05.03.11.06.16.09t0,0s.07.05.11.08h0c.05.04.1.08.15.13h0s.1.1.14.15h0s.03.03.04.05c.03.03.05.07.07.1.01.02.02.03.03.05h0s.02.04.03.05c.02.04.04.07.06.11.02.04.04.08.06.12s.03.08.05.12c0,.02.02.04.02.06.03.08.05.17.07.27h0s.02.09.03.14h0s0,.06.01.09c0,.07.02.14.02.21h0s0,.05,0,.07c0,.17,0,.34-.02.5,0,.03,0,.07-.01.1-.01.09-.02.19-.04.28-.01.08-.03.16-.05.24-.02.07-.03.15-.05.22-.01.04-.02.08-.03.12-.03.12-.07.24-.1.35-.02.08-.05.16-.07.23-.02.05-.03.1-.05.15,0,.02-.02.05-.02.07,0,.03-.02.05-.03.08,0,.02-.02.05-.02.07,0,.02-.02.05-.02.07,0,.02-.02.05-.02.07h0s-.02.05-.02.07c0,.02-.02.05-.02.07-.09.28-.18.56-.26.84-.02.06-.03.12-.05.18-.02.07-.04.14-.05.22-.03.12-.05.24-.07.37,0,.06-.02.13-.02.19,0,.01,0,.03,0,.04,0,.03,0,.06,0,.09,0,.12-.01.23,0,.35,0,.03,0,.06,0,.09.06,1.15.22,2.28.97,3.22.01.02.03.04.04.05h0s.02.03.03.05h0c.03.06.03.11,0,.16ZM21.42,20.17c-.03.08-.05.17-.08.25-.01.05-.03.11-.04.16-.03.11-.05.23-.07.35,0,.01,0,.02,0,.04,0,.04-.01.07-.01.11-.03.23-.04.47-.06.77h0c-.47-.46-.56-1-.69-1.54-.09-.37-.13-.73-.14-1.09,0-.08,0-.16,0-.25,0-.03,0-.05,0-.08,0-.01,0-.02,0-.03,0-.09,0-.17.02-.26,0-.03,0-.06,0-.1,0-.05,0-.09.02-.14,0-.03,0-.06.01-.09,0,0,0,0,0,0,.02-.12.03-.23.06-.35.02-.12.05-.23.08-.35,0-.03.01-.06.02-.09,0-.03.02-.06.02-.09,0-.02.01-.05.02-.07.01-.04.02-.08.03-.12.02-.06.04-.13.06-.19.02-.06.04-.13.06-.19.02-.05.03-.1.05-.15.03-.09.06-.18.09-.27.01-.04.03-.09.04-.13l.04-.14c.06-.2.12-.41.17-.61.02-.09.04-.17.06-.26.03-.14.06-.28.09-.42.02-.12.04-.24.06-.36.16-1.03-.15-1.94-.96-2.63-.07-.06-.15-.12-.22-.17h0s-.06-.04-.09-.06c-.02-.01-.04-.02-.06-.04-.04-.02-.08-.04-.12-.06-.02,0-.04-.02-.06-.03-.02,0-.03-.01-.05-.02-.03-.01-.07-.03-.1-.04-.03-.01-.07-.02-.1-.03-.02,0-.03,0-.05-.01-.03,0-.07-.02-.1-.02-.02,0-.03,0-.05,0-.03,0-.06,0-.09,0-.12-.01-.25-.01-.38,0-.03,0-.05,0-.08,0,0,0-.02,0-.02,0-.02,0-.05,0-.07.01-.07.01-.15.03-.22.05-.36.11-.73.2-1.09.27-.64.11-1.23-.08-1.65-.53-.14-.15-.28-.31-.42-.46h0c-.07-.08-.14-.16-.21-.24h0c-.2-.24-.4-.48-.59-.73-.06-.08-.12-.17-.18-.25h0c-.06-.09-.11-.17-.17-.26-.06-.1-.12-.21-.16-.31,0-.02-.02-.04-.03-.06-.02-.04-.03-.09-.04-.13-.02-.06-.03-.12-.04-.17,0,0,0,0,0,0-.01-.07-.03-.14-.03-.21,0-.1-.01-.19,0-.29,0-.03,0-.06,0-.09,0-.04,0-.07.01-.11.01-.08.03-.17.05-.25.01-.06.03-.11.05-.17.13-.38.35-.73.67-1.03.21-.2.42-.37.67-.46.17-.06.37-.08.6-.04,1.63.28,3.25.11,4.85-.18.57-.1.96.04,1.32.53.18.24.36.48.56.7.06.08.13.15.2.23.27.3.55.59.82.88.42.44.7.92.87,1.45,0,.03.02.06.03.08.03.09.05.19.08.28,0,.04.02.09.03.13.01.07.02.14.04.21,0,.04.01.09.02.13,0,.07.02.13.02.2,0,.07.01.13.02.2h0c0,.11.01.21.01.32h0s0,.07,0,.11c0,.25,0,.5-.03.75,0,0,0,.01,0,.02,0,.09-.01.17-.02.26,0,.05-.01.1-.02.16-.01.13-.03.25-.05.38-.03.17-.06.33-.09.5-.02.09-.04.19-.06.28-.02.07-.03.14-.05.2-.03.14-.07.27-.11.41-.04.13-.08.27-.13.4-.19.56-.42,1.1-.68,1.64-.28.57-.61,1.12-.93,1.67-.08.14-.17.28-.25.42,0,0,0,0,0,0-.03.06-.06.11-.1.17-.06.11-.13.22-.19.33,0,0,0,0,0,0-.06.11-.12.22-.18.34-.16.31-.31.63-.43.96-.01.04-.03.08-.04.12Z"/>
      <path class="cls-2" d="M30.01,27.37s-.02-.02-.03-.03h0s-.04-.02-.06-.03h0s-.03,0-.04-.01c-.04,0-.08-.02-.12-.03-.76-.23-1.55-.39-2.29-.69-1.97-.79-3.48-2.05-4.09-4.19,0-.03-.01-.05-.02-.07h0c-.02-.07-.05-.14-.08-.19-.01-.02-.02-.04-.03-.05-.01-.02-.02-.03-.03-.05-.01-.02-.02-.03-.04-.04-.01-.01-.03-.03-.04-.04-.12-.11-.28-.16-.47-.14-.03,0-.06,0-.09.01-.06.01-.13.03-.21.05-.02,0-.04.01-.06.02-.22.08-.43.17-.65.25,0,0-.01,0-.02,0-.03-.03-.05-.04-.07-.06-.01,0-.02-.02-.04-.03h0s0-.07.01-.1c.03-.32.04-.66.09-.98,0-.03,0-.06.02-.1,0,0,0,0,0,0,.01-.07.03-.14.05-.21.01-.05.03-.11.05-.16h0c.23-.67.54-1.33.9-1.95.14-.25.29-.49.43-.74.09-.16.19-.33.28-.49.05-.08.09-.17.14-.25.09-.17.18-.33.27-.5.04-.08.09-.17.13-.25.04-.08.08-.17.12-.25h0c.06-.13.12-.26.18-.39.06-.13.11-.26.17-.39h0c.05-.13.1-.27.15-.4.02-.05.03-.09.05-.14.03-.09.06-.18.09-.27.38-1.24.62-2.49.49-3.79-.06-.6-.15-1.19-.22-1.79-.05-.42-.14-.82-.27-1.19-.02-.05-.04-.1-.06-.16-.02-.06-.05-.12-.07-.17-.01-.03-.02-.05-.03-.08-.08-.17-.17-.34-.27-.49h0c-.11-.18-.24-.34-.37-.49-.02-.02-.04-.04-.06-.06h0s-.06-.07-.1-.1c-.1-.1-.2-.19-.3-.27-.08-.06-.16-.12-.24-.18-.04-.03-.08-.05-.13-.08-.04-.02-.09-.05-.13-.07-.12-.06-.24-.12-.36-.16-.18-.07-.38-.12-.57-.16-.11-.02-.23-.11-.3-.21-.14-.19-.29-.37-.45-.54-.05-.06-.11-.11-.16-.17-.03-.03-.06-.07-.1-.1-.1-.1-.2-.19-.3-.28h0c-.12-.11-.25-.21-.37-.31t0,0c-.3-.23-.61-.43-.94-.61h0c-.1-.06-.21-.11-.32-.16-.04-.02-.07-.03-.11-.05-.05-.02-.1-.04-.15-.07-.25-.11-.5-.2-.76-.29h0c-.05-.02-.1-.03-.16-.05-.04-.01-.08-.02-.12-.03-.12-.03-.24-.07-.36-.09-1.65-.4-3.3-.77-4.88-1.42-.44-.18-.93-.28-1.4-.32-.24-.02-.48-.03-.71-.02-.05,0-.1,0-.16,0-.04,0-.07,0-.11,0-.05,0-.1,0-.15.01-.21.02-.42.06-.62.11-.06.02-.12.03-.17.05-.03,0-.06.02-.08.03-.4.14-.78.35-1.12.66-.33.3-.68.47-1.09.61-.4.14-.76.33-1.07.59-.03.03-.07.06-.1.09-.17.16-.32.33-.44.54-.02.04-.05.08-.07.12,0,0,0,0,0,0-.03.05-.07.1-.11.15-.01.01-.02.02-.03.03-.04.03-.08.06-.11.09-.6.39-.96.95-1.16,1.56-.05.16-.09.33-.12.5,0,.05-.02.09-.02.14,0,0,0,.02,0,.02-.07.5-.05,1.02.02,1.49.01.07.02.13.03.2.01.07.03.13.04.2.01.06.03.13.05.19h0c.02.06.03.12.05.18,0,0,0,0,0,0,0,0,0,0,0,0,0,0,0,.02.01.03,0,0,.01.02.02.02h0s.01.01.02.02c.02.01.04.03.06.04,0,0,0,0,0,0,0,0,0,0,0,0,0,0,0,0,.01,0,.1.04.21-.02.23-.13,0-.05,0-.1,0-.14-.07-.6-.2-1.21-.21-1.81,0-.05,0-.11,0-.16,0,0,0,0,0,0,0-.05,0-.09.01-.14,0-.07.02-.15.04-.22,0-.02.01-.05.02-.07.02-.06.03-.13.05-.19.12-.37.33-.71.62-1.05.01.14.02.21.02.28,0,.08-.01.15-.01.23,0,0,0,0,0,.01-.03.75.09,1.48.37,2.18,0,.02.02.04.02.07,0,.02.01.04.02.07.01.04.02.09.03.13.03.14.03.27.02.4,0,.06-.02.12-.03.17,0,.02-.01.04-.02.06-.05.16-.14.31-.25.46-.26.33-.44.69-.57,1.07-.03.08-.05.16-.07.24-.02.08-.04.16-.06.25,0,.03-.01.06-.01.08,0,.03-.01.06-.01.09,0,.05-.01.1-.02.16,0,0,0,.01,0,.02,0,.05,0,.1-.01.15,0,0,0,0,0,.01-.01.15-.01.31-.01.47,0,.04,0,.07,0,.11,0,.03,0,.06,0,.08,0,.02,0,.04,0,.06,0,.03-.02.07-.03.1-.05.16-.15.28-.31.4-.39.3-.78.61-1.16.93-.1.09-.18.19-.22.3,0,.01,0,.02-.01.03,0,.03-.02.06-.02.09,0,.01,0,.03,0,.04,0,.03,0,.06,0,.09,0,.01,0,.03,0,.04,0,0,0,.02,0,.03,0,.01,0,.03,0,.04,0,.03.02.05.03.08h0s.02.05.04.08c.15.28.32.56.54.77.18.17.29.35.35.53.01.04.02.07.03.11.03.12.03.25.01.39,0,0,0,.02,0,.03,0,.03,0,.06-.02.09-.01.06-.03.13-.05.19-.02.05-.04.11-.06.17-.01.03-.02.06-.03.09-.02.06-.04.11-.05.17,0,.02-.01.04-.02.07,0,.04-.02.09-.02.13,0,.03,0,.06-.01.08,0,.02,0,.04,0,.06-.01.14-.01.28,0,.42.13,1.05.59,2.02.63,3.1.01.36.05.72.04,1.08,0,.02,0,.04,0,.06,0,0,0,0,0,.01,0,.04,0,.08,0,.11,0,.09-.01.18-.03.28,0,.06-.02.13-.03.19,0,.04-.02.08-.03.12s-.02.08-.04.12c-.01.05-.03.09-.05.14-.01.03-.02.06-.03.09-.03.08-.05.16-.07.25-.01.05-.02.11-.03.16-.02.11-.02.22-.02.33,0,.01,0,.03,0,.04,0,.03,0,.06,0,.08,0,.01,0,.03,0,.04.14.8.67,1.36,1.42,1.62.56.19,1.17.25,1.77.29,1.6.11,2.76.84,3.44,2.31.04.08.07.16.11.24.02.04.03.08.05.12.03.08.07.16.1.24h0c.03.08.06.16.09.25h0c.03.08.06.17.08.25h0c.06.18.11.36.16.54.21.78.35,1.59.45,2.41.04.32.05.57.01.77,0,.06-.02.11-.04.16-.11.32-.36.53-.85.81-.53.3-1.03.66-1.5,1.04-.2.16-.33.37-.41.59,0,.03-.02.06-.03.08-.03.1-.05.21-.06.31-.02.15-.02.31-.01.46,0,.01,0,.02,0,.03,0,0,0,.01,0,.02,0,0,0,.01,0,.02,0,0,0,.01.01.02s0,.01.01.02c.01.02.03.03.05.05,0,0,.01,0,.02.01h0c.06.04.14.04.2,0,0,0,0,0,.01-.01.03-.04.06-.07.08-.12,0,0,0-.02.01-.03,0-.02,0-.04.01-.06,0,0,0,0,0,0,0-.05,0-.1,0-.15,0-.04,0-.07,0-.1,0-.02,0-.04,0-.06,0-.02,0-.05,0-.07,0-.02,0-.03,0-.05,0-.03,0-.06.02-.08,0-.03.02-.06.03-.1.08-.25.24-.46.47-.64.26-.2.53-.4.82-.55,0,0,0,0,0,0,.06-.03.13-.07.19-.1,0,0,0,0,0,0,.04-.02.08-.04.12-.06.04-.02.08-.04.13-.07.04-.02.08-.04.12-.06,0,0,0,0,0,0,.04-.02.07-.04.11-.06.38-.22.7-.47.83-.86.01-.04.02-.08.03-.13h0c.17.15.36.3.55.46t0,0c.19.16.38.32.58.48.13.1.25.14.35.13.01,0,.02,0,.03,0,0,0,.02,0,.03,0,.11-.03.19-.13.24-.28,0-.03.02-.06.02-.09,0-.03.01-.06.02-.09,0,0,0,0,0-.01,0-.05,0-.1,0-.15,0,0,0,0,0,0,0-.02,0-.04,0-.05-.12-.86-.24-1.72-.39-2.58-.02-.13-.03-.24,0-.35,0-.01,0-.03,0-.05,0-.02,0-.04.02-.06,0-.01,0-.03.01-.04.04-.11.11-.22.2-.31.32-.32.63-.65.98-.92,1.63-1.3,3.27-2.59,4.92-3.88.24-.19.47-.37.72-.55.12-.09.24-.18.36-.26.61-.44,1.25-.83,1.94-1.15.05-.02.09-.04.13-.06.03-.01.05-.02.08-.03.05-.02.1-.04.14-.05.35-.11.48.02.63.53.27.89.77,1.63,1.41,2.29.04.04.09.09.13.13.04.04.09.08.13.13.04.04.09.08.13.12.13.12.27.24.41.34.09.07.19.14.28.21.07.05.14.1.22.15.07.05.15.1.22.14.07.05.15.09.23.13.17.1.34.19.52.28.04.02.09.04.13.06.09.04.18.08.27.12.04.02.09.04.14.06.18.08.36.15.55.22h0c.14.05.28.1.42.15.05.02.09.03.14.05h0c.17.05.34.1.51.15.17.05.34.09.52.14.13.03.25.07.38.07,0,0,0,0,.01,0h0s.02,0,.03,0c0,0,.02,0,.03,0,.06-.02.13-.06.14-.1.02-.09-.01-.21-.07-.28ZM22.25,5.86s.08.01.12.02c.05.01.1.02.14.04.07.02.13.05.2.08.04.02.09.04.13.07.04.02.09.05.13.08h0s.04.03.06.04c.06.04.12.08.17.13.04.03.08.06.11.09.06.05.11.1.16.15.04.04.07.07.1.11.03.04.07.08.1.11.05.06.09.12.14.18h0c.05.07.09.13.13.2h0s.05.09.08.14c.06.11.11.23.16.35.06.16.09.31.11.47h0c-.69-.76-1.34-1.48-2.04-2.25h0ZM8.37,1.65s.02-.02.03-.02c.01,0,.02-.01.04-.02.02-.01.05-.03.07-.04,0,0,.02-.01.03-.02.06-.04.13-.08.19-.12.07-.04.15-.08.23-.12.1-.04.21-.08.31-.12.69-.24,1.4-.29,2.09-.17.07.01.14.02.2.04.03,0,.07.02.1.02.07.02.13.03.2.05h0c.13.04.27.08.4.14.32.12.64.24.96.35h0c.24.08.48.16.72.24h0c.3.09.61.18.91.27.1.03.2.06.3.08.33.09.65.17.98.26h0c.44.11.87.21,1.31.31,1.28.29,2.39.93,3.31,1.87.12.12.22.25.32.38.03.04.05.1.1.2h0c-1.52.12-3,.61-4.5.11-1.44-.48-2.77-1.14-3.76-2.35-.05-.06-.12-.16-.19-.24-.09-.1-.2-.15-.3,0,0,0,0,0,0,0,0,0,0,0,0,0h0c-.04.1.09.37.2.51.09.11.19.22.28.33h0c.16.17.32.34.5.49h0c.13.12.26.23.4.33.05.03.09.07.14.1.05.04.11.08.17.12,0,0,0,0,.02.01.06.04.11.08.17.11.06.04.12.08.18.11.06.04.12.07.19.11.06.04.13.07.19.1.05.03.11.05.16.08.08.04.15.07.23.1.03.02.07.03.1.04.06.03.12.06.17.14,0,0,0,0,0,0-.23-.04-.46-.08-.68-.13-.24-.06-.47-.14-.71-.22-.11-.04-.22-.09-.33-.13-.63-.2-1.18-.46-1.65-.87-.05-.05-.11-.1-.16-.15-.03-.03-.07-.07-.1-.1-.02-.02-.03-.04-.05-.05-.02-.02-.04-.05-.06-.07-.06-.07-.12-.15-.18-.23h0c-.04-.05-.08-.11-.11-.17h0s-.02-.03-.03-.04c0-.01-.02-.03-.03-.04-.04-.06-.08-.12-.12-.18h0c-.04-.06-.08-.11-.13-.16-.02-.03-.05-.05-.07-.08-.03-.03-.05-.06-.08-.08-.05-.05-.11-.11-.16-.15-.02-.02-.04-.03-.06-.05-.03-.02-.06-.05-.09-.07-.19-.14-.4-.26-.62-.35-.04-.02-.07-.03-.11-.05-.02,0-.05-.02-.08-.03-.05-.02-.1-.04-.15-.05-.06-.02-.12-.04-.18-.05h0s-.08-.02-.11-.03c-.03,0-.07-.01-.1-.02-.03,0-.06-.01-.09-.02-.03,0-.07-.01-.1-.02-.04,0-.09-.01-.13-.02-.09-.01-.17-.02-.26-.03h0s-.09,0-.13,0c-.08,0-.16-.02-.24-.02-.09-.02-.09-.06-.05-.1ZM5.93,3.16c.15-.3.5-.54.97-.7.03,0,.05-.02.08-.03.05-.02.11-.03.16-.05.03,0,.06-.01.08-.02.06-.01.12-.03.18-.04.04,0,.08-.01.11-.02.06,0,.12-.02.18-.03.02,0,.03,0,.05,0,.05,0,.1-.01.15-.02.38-.03.78-.03,1.19.02.03,0,.06,0,.09.01h0c.07.01.14.03.22.05.02,0,.05.01.07.02.04.01.09.03.13.04h0c.07.02.14.05.21.08.03.01.07.03.1.04h0c.1.05.2.1.3.16.07.04.13.08.19.12.09.06.19.13.28.2.01.01.03.02.04.03.03.02.06.05.08.07h0s.05.04.08.07c.05.04.1.09.14.14.04.04.07.08.11.11.05.06.1.12.14.18.01.02.03.04.04.06.06.08.1.16.15.24h0s.02.03.02.05c.01.03.03.06.04.09,0,.01.01.03.02.05,0,.02.01.04.02.06,0,.02,0,.03.01.05,0,.02,0,.03.01.05,0,0,0,.01,0,.02h0c-1.01.11-1.99.14-2.89-.46-.55-.37-1.15-.59-1.81-.63-.06,0-.12,0-.19,0,0,0,0,0,0,0-.06,0-.13,0-.19,0-.1,0-.2,0-.29,0-.05,0-.1,0-.16,0-.05,0-.1,0-.15,0,0,0,0,0,0,0ZM5.17,5.8c0-.06-.02-.12-.02-.19-.02-.2-.03-.41-.01-.61,0-.04,0-.08,0-.11,0-.11.03-.22.05-.34.01-.08.03-.15.05-.23,0-.02.01-.04.02-.06.04-.14.11-.25.2-.33.01-.01.03-.02.04-.04h0s.05-.04.07-.05c.07-.05.14-.08.23-.11.02,0,.04-.01.06-.02,1.03-.29,1.95-.04,2.85.56-.1.04-.17.08-.25.1-.01,0-.02,0-.03,0-.02,0-.04,0-.06.01-.03,0-.06.02-.09.02-.05.01-.1.03-.14.04-.62.2-1.08.59-1.46,1.08-.04.05-.07.1-.11.15-.04.05-.07.1-.1.16-.03.05-.07.11-.1.16-.03.05-.06.11-.09.17-.02.03-.03.06-.05.09-.16.31-.36.59-.58.97,0,0,0,0,0,0-.09-.2-.18-.39-.24-.58-.02-.06-.04-.13-.06-.19h0c-.03-.11-.06-.21-.09-.32-.01-.05-.02-.09-.03-.14,0,0,0-.02,0-.03-.01-.06-.02-.12-.03-.19ZM4.53,10.5s0-.02,0-.03c.02-.17.04-.34.07-.53,0-.05.01-.1.02-.15,0-.02,0-.05,0-.07h0s.02.03.04.04h0s.04.05.06.07c0,.01.02.02.03.04.02.02.03.05.05.07h0s.04.07.06.1c.01.02.02.05.03.07h0s.02.07.03.1c.01.06.01.12,0,.17,0,.03-.01.06-.02.08-.05.15-.19.27-.4.34h0c.01-.1.03-.21.04-.31ZM3.36,14.05s-.02-.02-.03-.04c.03-.05.03-.06.05-.09,0,0,.01-.02.02-.03,0,0,0,0,0,0,.41.12.83.25,1.24.38.06.02.12.06.18.09,0,0,.01,0,.02,0,.02,0,.03.01.05.01h0s.01,0,.02,0c.01,0,.03,0,.04,0,.04,0,.08-.02.12-.03,0,0,0,0,.01,0,.08-.03.11-.12.09-.2,0-.02-.01-.03-.02-.05,0,0,0-.01,0-.02,0-.01-.01-.03-.02-.04-.02-.03-.04-.05-.06-.07,0,0,0,0,0,0-.5-.18-1.01-.33-1.51-.49-.03-.01-.07-.02-.1-.03-.24-.08-.49-.17-.82-.29h0s.03-.03.05-.05c.05-.04.09-.08.13-.12.04-.04.08-.08.12-.11.11-.11.21-.2.31-.29h0c.05-.05.11-.09.16-.14.11-.09.21-.18.32-.27.05-.05.11-.09.16-.14.36-.3.72-.61,1.04-.95.2-.21.33-.39.39-.57.11-.31,0-.6-.28-1.04-.11-.17-.14-.31-.08-.47.02-.05.04-.1.07-.15.27-.41.55-.82.81-1.24.27-.44.52-.88.78-1.33.42-.71.97-1.18,1.66-1.4.33-.11.69-.16,1.08-.15.56,0,1.12-.01,1.67,0h0c.17,0,.35.02.52.03.17.02.35.04.52.07.84.15,1.64.53,2.53.84,0,.01-.02.03-.03.04-.02.02-.03.05-.05.07h0s-.03.05-.04.07c-.01.02-.03.04-.04.06-.06.09-.11.16-.18.22-.27.24-.48.59-.61.97-.14.41-.19.88-.13,1.34,0,.06.02.12.03.18.01.06.02.12.04.18.01.05.02.09.04.13s.03.09.05.13h0c.05.15.12.29.21.43.18.3.39.59.62.86.91,1.06,1.2,2.29,1.11,3.65-.02.34-.09.7.29.9.03.02.06.03.09.03.01,0,.02,0,.03,0,.03,0,.05,0,.08,0,.02,0,.03,0,.05,0,.01,0,.03,0,.04,0,.18-.05.38-.23.57-.48,0,0,0,0,0,0,.11-.15.21-.3.31-.44.17-.25.35-.49.56-.71h0s.05-.05.07-.08c.02-.03.05-.05.08-.08.11-.1.23-.2.35-.29.03-.02.06-.04.1-.07.11-.07.21-.13.33-.17.04-.02.09-.03.13-.05.27-.08.52-.08.74,0,.06.02.11.05.16.08t0,0s.05.03.07.05h0s.05.04.07.06h0s.02.02.03.03c.02.02.04.05.06.07.02.02.03.04.05.06.1.15.18.33.22.55.05.32.05.67-.03.97-.02.08-.05.16-.07.23-.32.95-.92,1.68-1.77,2.18-.07.04-.14.08-.21.11-.11.06-.22.11-.33.16-.05.02-.1.04-.15.06-.06.02-.11.03-.17.04-.05.01-.1.02-.14.02-.29.03-.57-.04-.86-.21-.19-.12-.34-.16-.46-.13-.1.02-.17.1-.21.24,0,.03-.02.06-.03.09,0,.02-.01.05-.01.08,0,0,0,0,0,.01,0,.03,0,.06-.01.09,0,.01,0,.03,0,.04,0,.05-.01.1-.02.15,0,.05-.01.1-.02.15,0,.02,0,.03,0,.05-.05.37-.12.72-.23,1.07-.02.07-.04.14-.07.2-.08.25-.19.49-.31.72-.03.05-.05.1-.08.15s-.06.1-.09.15c-.03.05-.06.1-.09.14-.03.05-.06.09-.1.14-.02.02-.03.04-.05.07-.03.04-.07.09-.1.13-.18.21-.38.39-.61.54-.04.03-.09.06-.14.09-.02.01-.05.03-.07.04-.05.03-.1.05-.15.08-.12.06-.25.11-.39.16-.03,0-.06.02-.08.03-.09.02-.17.05-.26.07-.09.02-.17.05-.26.07-.26.07-.52.14-.78.21-.09.02-.17.04-.26.07,0,0,0,0,0,0-.22.06-.43.11-.65.16-.65.16-1.31.32-1.96.48-1.17.29-2.34.57-3.5.85-.17.04-.34.08-.52.11-.79.12-1.21-.35-1.01-1.13.01-.05.02-.1.04-.14,0-.01,0-.03.01-.04,0-.02.01-.03.02-.05.01-.05.03-.09.05-.13.05-.1.08-.2.12-.3.03-.08.05-.17.07-.25.03-.14.05-.27.06-.41,0,0,0-.02,0-.03,0-.04,0-.08,0-.12,0-.09,0-.19,0-.28,0-.09-.01-.18-.02-.27-.01-.09-.02-.18-.04-.27,0-.03,0-.05-.01-.07,0-.02,0-.05,0-.07,0-.02,0-.03,0-.04-.02-.15-.01-.26.02-.35,0-.02.01-.03.02-.05.08-.17.26-.27.59-.41.06-.02.12-.05.18-.08.11-.05.22-.1.33-.15h0c.08-.04.17-.08.25-.12.42-.2.84-.43,1.26-.64.14-.07.26-.2.37-.32.08-.09.14-.19.18-.29.01-.04.03-.08.03-.13.01-.09.01-.18,0-.27,0-.03-.01-.05-.02-.08h0s-.01-.03-.02-.05c0-.01-.01-.03-.02-.04-.05-.09-.13-.18-.22-.26-.72-.57-1.55-.85-2.45-.88-.04,0-.09,0-.13,0,0,0,0,0,0,0-.03,0-.06,0-.09,0-.02,0-.04,0-.06,0-.05,0-.09.02-.14.03-.26.08-.48.26-.57.54-.04.13-.06.28-.04.46,0,.02,0,.04,0,.06,0,.04,0,.08,0,.12h0s0,0,0-.01c0-.01,0-.03,0-.04,0-.01,0-.03,0-.04-.02-.09-.03-.18-.04-.27,0-.03,0-.07-.01-.1,0-.03,0-.06,0-.09,0-.12,0-.23.03-.33.01-.04.03-.09.04-.13.01-.04.03-.09.04-.13,0-.04.02-.07.03-.11,0-.03.02-.07.03-.1.06-.24.1-.49.09-.72,0-.04,0-.08,0-.12,0-.02,0-.05-.01-.07,0-.04-.02-.08-.03-.12,0-.02-.01-.04-.02-.06-.02-.07-.05-.13-.08-.2-.01-.02-.02-.04-.04-.06-.01-.02-.03-.04-.04-.06,0,0,0,0,0,0-.01-.02-.03-.04-.04-.06-.01-.02-.02-.03-.04-.05,0-.01-.02-.02-.03-.04-.02-.02-.04-.05-.06-.07ZM4.04,16.76s0-.02,0-.03c0-.03,0-.05,0-.08,0-.01,0-.02,0-.04,0-.02.01-.04.02-.06.04-.12.13-.19.23-.22.05-.02.11-.03.18-.03.82-.03,1.56.21,2.23.68,0,0,0,0,0,0-.03-.01-.06-.02-.08-.03-.03-.01-.06-.02-.09-.03-.06-.02-.11-.04-.17-.06-.03,0-.06-.02-.09-.03-.05-.01-.1-.03-.15-.04-.04,0-.07-.02-.11-.03-.03,0-.07-.01-.1-.02-.1-.02-.2-.04-.3-.05-.04,0-.08,0-.12-.01-.06,0-.12,0-.18-.01h0c-.42-.02-.85.03-1.28.14,0-.02,0-.05,0-.07ZM4.42,17.31c.06-.03.12-.06.19-.08.13-.04.27-.07.43-.09.05,0,.09,0,.14,0,.08,0,.16,0,.23,0,.03,0,.07,0,.1,0,0,0,0,0,0,0,.07,0,.14.01.21.02,0,0,0,0,0,0,.05,0,.1.02.15.03.04,0,.08.02.12.03.03,0,.06.01.09.02.02,0,.03,0,.05.01.1.03.19.06.27.1h0s.04.02.05.03c.01,0,.03.02.04.02.03.02.06.03.08.05s.05.04.08.05c.02.02.05.04.07.06h0s.02.02.03.03c-.13.11-.26.22-.4.33-.06.05-.12.09-.19.13-.06.04-.13.08-.19.12h0s-.06.03-.09.05h0c-.06.03-.13.06-.19.08,0,0,0,0,0,0-.11.04-.22.07-.35.09-.07.01-.17-.06-.22-.13-.24-.32-.47-.64-.71-.96,0,0,0,0,0,0ZM3.59,17.1s0-.03,0-.04c0,.01,0,.03,0,.04ZM3.6,17.15s0-.02,0-.02c0,0,0,.02,0,.03,0,0,0,0,0,.01,0,0,0,0,0,0,0,0,0-.01,0-.02ZM3.6,17.18s0,0,0-.01c0,0,0,.01.01.02,0,0,0,0,0,0,.21.21.43.4.64.61.07.07.14.14.2.21h0s.07.08.11.13c.03.04.06.07.08.1,0,.01.01.02.02.03,0,.01.02.03.02.04.05.09.07.16.05.22-.02.09-.12.15-.3.21-.03,0-.06.02-.09.03-.09.03-.18.05-.32.08-.14-.56-.28-1.11-.43-1.67ZM20.78,22.68c-2.3,1.78-4.6,3.57-6.9,5.36-.3.23-.56.5-.84.76-.2.19-.34.39-.41.62-.01.03-.02.07-.03.1,0,.03-.01.06-.02.09,0,.02,0,.04,0,.06,0,.03,0,.07,0,.1,0,0,0,0,0,.01,0,.15,0,.3.04.46.15.71.27,1.43.39,2.15,0,.01,0,.02,0,.03h0c0,.05,0,.11,0,.16h0s0,.06,0,.09c0,.03,0,.06,0,.08-.01,0-.02.01-.03.01t0,0s-.04.02-.08.04c0,0,0,0,0,0-.04-.03-.08-.06-.11-.1-.03-.02-.06-.05-.08-.07-.05-.05-.11-.1-.16-.15-.03-.02-.05-.05-.08-.08-.07-.07-.13-.13-.19-.2-.06-.07-.12-.14-.18-.21-.04-.05-.07-.1-.11-.15-.02-.02-.03-.04-.05-.07-.03-.04-.06-.09-.08-.13,0,0,0,0,0,0-.07-.12-.13-.24-.18-.37-.01-.03-.02-.05-.03-.08-.02-.05-.03-.09-.05-.14-.05-.14-.08-.29-.11-.44-.22-1.34-.55-2.64-1.17-3.86-.16-.32-.34-.6-.54-.85-.03-.04-.06-.07-.09-.1-.03-.04-.07-.08-.1-.11-.04-.04-.08-.08-.12-.12-.14-.14-.29-.26-.45-.38h0c-.06-.04-.13-.09-.19-.13-.03-.02-.07-.04-.1-.06h0c-.06-.03-.12-.07-.18-.1-.09-.05-.19-.09-.28-.13-.1-.04-.2-.08-.3-.11-.07-.02-.14-.04-.2-.07h0c-.1-.03-.19-.05-.29-.08-.03,0-.07-.01-.1-.02-.02,0-.04,0-.06-.01-.06-.01-.12-.02-.18-.03-.18-.03-.36-.05-.55-.07-.45-.04-.89-.09-1.33-.15-.11-.01-.22-.06-.32-.09,0-.03,0-.07,0-.1h0c.94-.24,1.88-.49,2.83-.72,1.55-.36,3.11-.69,4.65-1.06.12-.03.24-.06.35-.1.02,0,.04-.01.06-.02.02,0,.04-.01.06-.02.09-.03.18-.06.27-.1.05-.02.1-.04.15-.06.06-.03.13-.06.19-.09.04-.02.09-.04.13-.07.04-.02.07-.04.1-.06.08-.04.15-.09.22-.13.07-.05.14-.09.21-.14,0,0,0,0,0,0,.04-.03.07-.05.11-.08.02-.01.04-.03.06-.05.03-.03.07-.05.1-.08.02-.02.05-.04.07-.06.03-.03.06-.06.09-.08.37-.36.67-.78.9-1.26.06-.12.11-.24.16-.36.03-.08.06-.17.09-.25,0-.03.02-.06.03-.08.02-.07.04-.14.06-.21,0-.03.01-.06.02-.08.02-.09.04-.17.06-.26,0-.02,0-.04.01-.06,0-.04.02-.09.03-.13s.02-.09.02-.14c0-.01,0-.03,0-.04,0,0,0,0,0-.01,0-.02,0-.04,0-.06,0-.04,0-.08.01-.12,0-.02,0-.04,0-.06,0-.04.01-.08.02-.12h0s.02-.08.03-.11c.02-.07.05-.13.1-.17.01,0,.02-.02.04-.02.05-.01.11,0,.18.01.05.01.09.03.14.04.04.01.08.02.12.03.07.02.14.03.2.03.07,0,.14,0,.21,0,.03,0,.07,0,.1,0,.02,0,.05,0,.07,0,.07,0,.15-.01.22-.02.06,0,.13-.02.19-.03.02,0,.04,0,.07-.01.02,0,.03,0,.05-.01.02,0,.04-.01.07-.02.04-.01.08-.03.13-.05.27-.11.51-.24.74-.39.07-.04.14-.09.2-.14.19-.13.36-.28.52-.44.03-.03.06-.06.09-.09.21-.22.39-.46.54-.73.04-.07.08-.13.11-.2.03-.05.05-.1.08-.16.02-.05.05-.11.07-.16.02-.05.04-.11.07-.17.02-.06.04-.11.06-.17.06-.18.11-.36.14-.55.22-1.07-.33-2.08-1.27-2.23-.19-.03-.37-.03-.54,0-.03,0-.06.01-.08.02-.04,0-.07.02-.11.03-.02,0-.04.01-.06.02-.36.13-.68.37-.96.67-.02.02-.04.04-.06.07-.07.08-.14.17-.21.25-.02.03-.04.06-.07.09h0c-.05.07-.1.14-.15.22-.03.05-.07.1-.1.15-.02.02-.03.05-.05.07-.03.05-.07.09-.1.14,0,0,0,0,0,0-.04.05-.07.09-.11.14h0c-.15.18-.34.33-.52.49h0c-.03-.22-.08-.44-.1-.66-.06-.63-.1-1.26-.16-1.93h0c.11.04.24.08.36.13.11.05.23.09.34.12,0,0,0,0,0,0,.05.01.09.02.14.03.02,0,.05,0,.07.01h0c.08.01.16.03.24.03.09,0,.17,0,.26,0,.07,0,.13,0,.2-.01,0,0,.01,0,.02,0,.08,0,.15-.02.23-.04.08-.02.16-.03.23-.06.04,0,.07-.02.11-.03.04-.01.08-.03.12-.04.04-.01.08-.03.12-.04.6-.19,1.15-.16,1.6.05.05.03.11.06.16.09t0,0s.07.05.11.08h0c.05.04.1.08.15.13h0s.1.1.14.15h0s.03.03.04.05c.03.03.05.07.07.1.01.02.02.03.03.05h0s.02.04.03.05c.02.04.04.07.06.11.02.04.04.08.06.12s.03.08.05.12c0,.02.02.04.02.06.03.08.05.17.07.27h0s.02.09.03.14h0s0,.06.01.09c0,.07.02.14.02.21h0s0,.05,0,.07c0,.17,0,.34-.01.5,0,.03,0,.07-.01.1-.01.09-.02.19-.04.28-.01.08-.03.16-.05.24-.02.07-.03.15-.05.22-.01.04-.02.08-.03.12-.03.12-.07.24-.1.35-.02.08-.05.16-.07.23-.02.05-.03.1-.05.15,0,.02-.02.05-.02.07,0,.03-.02.05-.03.08,0,.02-.02.05-.02.07,0,.02-.02.05-.02.07,0,.02-.02.05-.02.07h0s-.02.05-.02.07c0,.02-.02.05-.02.07-.09.28-.18.56-.26.84-.02.06-.03.12-.05.18-.02.07-.04.14-.05.22-.03.12-.05.24-.07.37,0,.06-.02.13-.02.19,0,.01,0,.03,0,.04,0,.03,0,.06,0,.09,0,.12-.01.23,0,.35,0,.03,0,.06,0,.09.06,1.15.22,2.28.97,3.22.01.02.03.04.04.05h0s.02.03.03.05h0c.02.06.03.11,0,.16-.02.07-.08.13-.17.2ZM21.42,20.17c-.03.08-.05.17-.08.25-.01.05-.03.11-.04.16-.03.11-.05.23-.07.35,0,.01,0,.02,0,.04,0,.04-.01.07-.02.11-.03.23-.04.46-.06.77h0c-.47-.46-.56-1-.69-1.54-.09-.37-.13-.73-.14-1.09,0-.08,0-.16,0-.25,0-.03,0-.05,0-.08,0-.01,0-.02,0-.03,0-.09,0-.17.02-.26,0-.03,0-.06,0-.1,0-.05,0-.09.02-.14,0-.03,0-.06.01-.09,0,0,0,0,0,0,.01-.12.03-.23.06-.35.02-.12.05-.23.08-.35,0-.03.01-.06.02-.09,0-.03.02-.06.02-.09,0-.02.01-.05.02-.07.01-.04.02-.08.03-.12.02-.06.04-.13.06-.19.02-.06.04-.13.06-.19.02-.05.03-.1.05-.15.03-.09.06-.18.09-.27.01-.04.03-.09.04-.13l.04-.14c.06-.2.12-.41.17-.61.02-.09.04-.17.06-.26.03-.14.06-.28.09-.42.02-.12.04-.24.06-.36.16-1.03-.15-1.94-.96-2.63-.07-.06-.15-.12-.22-.17h0s-.06-.04-.09-.06c-.02-.01-.04-.02-.06-.04-.04-.02-.08-.04-.12-.06-.02,0-.04-.02-.06-.03-.02,0-.03-.01-.05-.02-.03-.01-.07-.03-.1-.04-.03-.01-.07-.02-.1-.03-.02,0-.03,0-.05-.01-.03,0-.07-.02-.1-.02-.02,0-.03,0-.05,0-.03,0-.06,0-.09,0-.12-.01-.25-.01-.38,0-.03,0-.05,0-.08,0,0,0-.02,0-.02,0-.02,0-.05,0-.07.01-.07.01-.15.03-.22.06-.36.11-.73.2-1.09.27-.64.11-1.23-.08-1.65-.53-.14-.15-.28-.31-.42-.46h0c-.07-.08-.14-.16-.21-.24h0c-.21-.24-.4-.48-.59-.73-.06-.08-.12-.17-.18-.25h0c-.06-.09-.12-.17-.17-.26-.06-.1-.12-.21-.16-.31,0-.02-.02-.04-.03-.06-.02-.04-.03-.09-.04-.13-.02-.06-.03-.12-.04-.17,0,0,0,0,0,0-.01-.07-.03-.14-.03-.21-.01-.1-.01-.19,0-.29,0-.03,0-.06,0-.09,0-.04,0-.07.01-.11.01-.08.03-.17.05-.25.01-.06.03-.11.05-.17.13-.38.35-.73.67-1.03.21-.2.42-.37.67-.46.17-.06.37-.08.6-.04,1.63.28,3.25.11,4.85-.18.57-.1.96.04,1.32.53.17.24.36.48.56.7.06.08.13.15.2.23.27.3.55.59.82.88.42.44.7.92.87,1.44,0,.03.02.06.03.08.03.09.05.19.08.28,0,.04.02.09.03.13.01.07.02.14.04.21,0,.04.01.09.02.13,0,.07.02.13.02.2,0,.07.01.13.02.2h0c0,.11.01.21.01.32h0s0,.07,0,.11c0,.25,0,.5-.03.75,0,0,0,.01,0,.02,0,.09-.01.17-.02.26,0,.05-.01.1-.02.16-.01.13-.03.25-.05.38-.03.17-.06.33-.09.5-.02.09-.04.19-.06.28-.02.07-.03.14-.05.2-.03.14-.07.27-.11.41-.04.13-.08.27-.13.4-.19.56-.42,1.1-.68,1.64-.28.57-.61,1.12-.93,1.67-.08.14-.17.28-.25.42,0,0,0,0,0,0-.03.06-.06.11-.1.17-.06.11-.13.22-.19.33,0,0,0,0,0,0-.06.11-.12.22-.18.34-.16.31-.31.63-.43.96-.01.04-.03.08-.04.12Z"/>
    </g>
    <rect class="cls-1" width="36" height="36"/>
  </g>
</svg>